<svg xmlns="http://www.w3.org/2000/svg" width="36" height="36" fill="none" viewBox="0 0 36 36">
  <path stroke="#F10505" stroke-linecap="round" stroke-linejoin="round" stroke-width="1.5" d="M18 27v0a4.5 4.5 0 0 1-4.5-4.5v-.631a1.5 1.5 0 0 1 1.5-1.5h6a1.5 1.5 0 0 1 1.5 1.5v.631A4.5 4.5 0 0 1 18 27Z" clip-rule="evenodd"/>
  <path stroke="#F10505" stroke-linecap="round" stroke-linejoin="round" stroke-width="1.5" d="M21.711 10.5V6.75A3.75 3.75 0 0 0 17.961 3v0a3.75 3.75 0 0 0-3.75 3.75v3.75M28.5 18v12a3 3 0 0 1-3 3h-15a3 3 0 0 1-3-3V18"/>
  <path stroke="#F10505" stroke-linecap="round" stroke-linejoin="round" stroke-width="1.5" d="M33 18h-3.811a4.5 4.5 0 0 1-4.413-3.618l-.536-2.676a1.497 1.497 0 0 0-1.47-1.206h-9.54a1.5 1.5 0 0 0-1.472 1.206l-.535 2.676A4.498 4.498 0 0 1 6.811 18H3"/>
</svg>
