<svg xmlns="http://www.w3.org/2000/svg" width="36" height="36" fill="none" viewBox="0 0 36 36">
  <path stroke="#F10505" stroke-linecap="round" stroke-linejoin="round" stroke-width="1.5" d="M25.128 29.255h-11.63m-.321-5.79-1.219 3.657"/>
  <circle cx="11.247" cy="29.255" r="2.251" stroke="#F10505" stroke-linecap="round" stroke-linejoin="round" stroke-width="1.5"/>
  <path stroke="#F10505" stroke-linecap="round" stroke-linejoin="round" stroke-width="1.5" d="m22.87 23.448 3.133 8.058"/>
  <path stroke="#F10505" stroke-linecap="round" stroke-linejoin="round" stroke-width="1.5" d="M7.496 11.998h21.008a1.5 1.5 0 0 1 1.501 1.5v0a9.004 9.004 0 0 1-9.004 9.004H15a9.004 9.004 0 0 1-9.004-9.004v0a1.5 1.5 0 0 1 1.5-1.5Z" clip-rule="evenodd"/>
  <path stroke="#F10505" stroke-linecap="round" stroke-linejoin="round" stroke-width="1.5" d="M12.373 7.496c-.5-.667-.5-1.584 0-2.251.5-.667.5-1.584 0-2.251m11.254 4.502c-.5-.667-.5-1.584 0-2.251.5-.667.5-1.584 0-2.251M18 7.496c-.5-.667-.5-1.584 0-2.251.5-.667.5-1.584 0-2.251"/>
</svg>
