<svg xmlns="http://www.w3.org/2000/svg" width="36" height="36" fill="none" viewBox="0 0 36 36">
  <path stroke="#F10505" stroke-linecap="round" stroke-linejoin="round" stroke-width="1.5" d="M24.005 12.777a3.609 3.609 0 0 0 2.331-5.646 3.747 3.747 0 0 0-4.688-1.16 3.724 3.724 0 0 0-7.294 0 3.747 3.747 0 0 0-4.696 1.172 3.613 3.613 0 0 0 2.34 5.639M12 15.02h12"/>
  <path stroke="#F10505" stroke-linecap="round" stroke-linejoin="round" stroke-width="1.5" d="M24 12.777v4.473a6 6 0 0 1-6 6v0a6 6 0 0 1-6-6v-4.468m1.74 14.053 1.11-4.485m6.285 0 1.125 4.485M4.5 32.25v-.555a4.5 4.5 0 0 1 3.618-4.413l4.269-.854a1.36 1.36 0 0 1 1.018.201v0a8.28 8.28 0 0 0 9.19 0v0a1.35 1.35 0 0 1 1.018-.201l4.269.854a4.5 4.5 0 0 1 3.618 4.413v.555"/>
</svg>
