<svg xmlns="http://www.w3.org/2000/svg" width="36" height="36" fill="none" viewBox="0 0 36 36">
  <path stroke="#F10505" stroke-linecap="round" stroke-linejoin="round" stroke-width="1.5" d="M15.879 23.303 8.34 30.841a2.25 2.25 0 0 1-3.182 0v0a2.25 2.25 0 0 1 0-3.182l7.538-7.538M25.952 4.5l-7.032 7.032a3 3 0 0 0 0 4.242l1.061 1.061a3 3 0 0 0 4.242 0l7.032-7.032"/>
  <path stroke="#F10505" stroke-linecap="round" stroke-linejoin="round" stroke-width="1.5" d="m20.727 23.91 3.182-3.183 6.932 6.932a2.25 2.25 0 0 1 0 3.182v0a2.25 2.25 0 0 1-3.182 0l-6.932-6.932Z" clip-rule="evenodd"/>
  <path stroke="#F10505" stroke-linecap="round" stroke-linejoin="round" stroke-width="1.5" d="m24.34 11.415 4.264-4.263m-5.971 12.323 1.276 1.252-4.773 4.773a.75.75 0 0 1-1.06 0l-5.47-5.47C7.736 15.16 6.156 8.844 9.08 5.922h.024l-.022-.002L23.9 20.737m3.092-6.671L21.69 8.764"/>
</svg>
