<svg width="234" height="52" viewBox="0 0 234 52" fill="none" xmlns="http://www.w3.org/2000/svg">
<path d="M35.5159 30.9129C34.3337 31.1291 33.2248 31.6068 32.109 32.088C25.5184 34.9126 20.2704 41.8135 19.287 48.8435C19.2556 49.0736 19.0813 49.8373 19.0534 50.0639C19.0429 50.1616 18.757 49.914 18.757 49.914C18.757 49.914 18.5268 49.764 18.5373 49.6873C18.5617 49.4607 18.614 49.0457 18.6349 48.8156C19.0429 44.4881 21.3025 40.0142 24.8524 36.4329C28.2627 32.9947 31.5057 31.0315 35.5716 30.5049" fill="#F19E04"/>
<path d="M30.1772 40.6593L29.6088 41.2172C27.0493 43.7384 25.4592 47.086 25.1279 50.6428L25.0686 51.267L25.6928 51.1903C27.9489 50.9183 29.5425 50.0535 30.4317 48.6238C31.7777 46.4513 31.1815 43.5012 30.4422 41.409L30.1772 40.6558V40.6593Z" fill="white"/>
<path d="M44.4322 22.9799L44.216 23.1647C44.1881 23.1891 41.3566 25.5638 38.0334 26.167L36.8757 26.3763L37.8242 27.0737C37.8974 27.126 39.641 28.3883 41.9111 28.3883C44.0487 28.3883 45.8863 27.3073 47.3718 25.1767L47.6229 24.8141L44.4287 22.9799H44.4322Z" fill="white"/>
<path d="M3.47998 22.9799L3.69618 23.1647C3.72408 23.1891 6.55558 25.5638 9.87877 26.167L11.0365 26.3763L10.088 27.0737C10.0148 27.126 8.27123 28.3883 6.00114 28.3883C3.86356 28.3883 2.02587 27.3073 0.540376 25.1767L0.289307 24.8141L3.48347 22.9799H3.47998Z" fill="white"/>
<path d="M5.23407 21.449C7.27401 22.7532 9.87886 23.7156 12.9789 24.3119L13.2369 24.3607L13.4252 24.1794C15.3954 22.2824 17.5714 20.5877 19.9007 19.1441C20.2913 18.9034 20.6923 18.6628 21.0933 18.4362L22.781 17.4703L20.8387 17.4877C20.6191 17.4877 20.3994 17.4877 20.1867 17.4877C11.598 17.4877 8.12486 15.8627 5.89313 10.7925C4.99346 8.74908 5.26894 6.56617 6.7091 4.30305C7.81451 2.563 9.22677 1.4297 9.24072 1.41575L11.0226 0L8.80135 0.530036C6.32204 1.11935 4.30999 2.18988 2.82101 3.71025C0.348674 6.23838 -0.50566 9.83007 0.285906 14.3912C0.791533 17.2994 2.45487 19.6741 5.23407 21.449V21.449Z" fill="white"/>
<path d="M45.175 3.71025C43.686 2.18988 41.674 1.11935 39.1947 0.530036L36.9734 0L38.7623 1.41924C38.8181 1.46457 44.2788 5.87224 42.1099 10.796C40.3489 14.7922 37.9254 16.5218 33.162 17.1843C30.7664 17.5156 28.465 18.1468 26.3239 19.0569C20.9712 21.3339 16.1835 24.9535 12.4837 29.5286L12.3616 29.682L12.3721 29.8773C12.536 32.6216 13.5716 35.1253 15.4547 37.3152L15.9045 37.8418L16.2672 37.2524C16.4694 36.9281 16.6786 36.6039 16.8913 36.29C17.8991 34.7975 19.0568 33.3923 20.3331 32.116C21.6094 30.8397 23.0112 29.682 24.5071 28.6742C26.0135 27.656 27.6281 26.7808 29.2984 26.0729C30.9094 25.3929 32.5937 24.8594 34.3058 24.4897L34.8707 24.3677L34.8637 24.3433C37.8347 23.7888 40.3663 22.8961 42.3889 21.6861C45.3947 19.8868 47.1871 17.4354 47.7136 14.3947C48.5052 9.83356 47.6543 6.24187 45.1785 3.71374L45.175 3.71025Z" fill="white"/>
<path d="M23.998 2.90475L24.9395 4.81567L27.0457 5.11905L25.5218 6.60454L25.881 8.70376L23.998 7.71343L22.1149 8.70376L22.4741 6.60454L20.9503 5.11905L23.0565 4.81567L23.998 2.90475Z" fill="#F19E04"/>
<path d="M21.2816 51.009C21.3548 46.7233 23.053 43.1491 25.5253 39.6236C28.0186 36.0633 34.4662 33.7863 34.5952 34.1106L34.2674 34.7906C34.2674 34.7906 30.7699 36.0738 27.5827 39.0552C25.2812 41.2068 23.2797 44.4707 22.2161 47.6858C21.8534 48.7807 21.442 49.8512 21.421 51.0403L21.2816 51.009V51.009Z" fill="white"/>
<path d="M17.1598 47.8043L17.3377 48.2158C18.1885 46.9605 18.2269 44.1185 18.7918 42.082C19.6636 38.9472 21.7663 36.2342 24.6605 33.8281C28.6846 30.4805 35.6483 28.9497 35.6483 28.9497L35.6309 28.4999C22.9135 30.7107 19.4962 38.4206 19.4962 38.4206C19.4962 38.4206 16.9855 38.731 17.1564 47.8043H17.1598Z" fill="white"/>
<path d="M23.7156 34.149C27.0841 31.1257 31.4639 29.0927 35.6345 28.5731C35.624 28.2976 35.6066 28.0187 35.5787 27.7397L35.5229 27.1748L34.9684 27.2934C28.0501 28.7754 22.0104 33.2005 18.3978 39.4354L18.3804 39.4668C18.2723 39.6725 15.8279 44.3591 17.1564 47.8078C17.3343 42.633 19.6427 37.8034 23.7121 34.149H23.7156Z" fill="#8A0304"/>
<path d="M21.421 51.0438C21.4978 51.0578 21.564 51.0787 21.6407 51.0927L22.1952 51.1938L22.237 50.6324C22.387 48.6936 22.8473 46.8036 23.6039 45.0112C24.0573 43.9407 24.6187 42.905 25.2708 41.9391C25.9194 40.9801 26.6621 40.0805 27.4781 39.2645C28.2976 38.445 29.1972 37.7023 30.1527 37.0572C31.1186 36.4051 32.1543 35.8437 33.2248 35.3904C33.4619 35.2892 33.706 35.1916 33.9536 35.1009L34.1349 35.0347L34.2256 34.8638C34.3267 34.672 34.4174 34.4767 34.508 34.2815C28.165 35.8681 21.8709 42.3227 21.4141 51.0473L21.421 51.0438Z" fill="#8A0304"/>
<path d="M19.0603 49.1015C19.0394 49.3387 19.015 49.5723 18.9905 49.8024C18.9801 49.8896 18.9731 49.9768 18.9626 50.0675C19.6008 50.4964 20.3784 50.8067 21.2816 51.009C21.5047 47.0407 22.9693 43.2119 25.487 40.084C27.9279 37.0502 31.1988 34.9231 34.5952 34.1106C35.052 33.0889 35.3554 32.0218 35.5158 30.9095C27.3316 32.6251 19.7856 40.8441 19.0638 49.098L19.0603 49.1015Z" fill="#8A0304"/>
<path d="M17.2924 48.1182C17.3029 48.1426 17.3133 48.1635 17.3238 48.1879C17.6307 48.8191 18.0631 49.3526 18.6036 49.792V49.7641C18.6315 49.5339 18.6559 49.3038 18.6768 49.0701C19.416 40.614 27.1853 32.1927 35.5752 30.5049C35.6379 29.9191 35.6623 29.3228 35.6449 28.7161C27.6769 29.7343 17.4912 36.6631 17.2924 48.1182V48.1182Z" fill="#8A0304"/>
<path d="M107.287 46.8832V43.0904C107.287 42.1705 107.514 41.477 107.967 41.0147C108.419 40.5524 109.019 40.3212 109.764 40.3212C110.509 40.3212 111.071 40.5429 111.528 40.9817C111.986 41.4204 112.212 42.0856 112.212 42.9724V43.0904H111.25V42.996C111.25 42.3733 111.118 41.9157 110.849 41.628C110.58 41.3402 110.222 41.194 109.773 41.194C109.264 41.194 108.882 41.3543 108.627 41.6751C108.372 41.9959 108.245 42.5007 108.245 43.1847V46.8973C108.245 48.1428 108.754 48.7655 109.773 48.7655C110.231 48.7655 110.589 48.6192 110.854 48.3314C111.118 48.0437 111.25 47.6002 111.25 47.0011V46.8832H112.184V47.0153C112.184 47.8927 111.962 48.5485 111.514 48.9825C111.066 49.4165 110.486 49.6335 109.773 49.6335C109.028 49.6335 108.424 49.4023 107.967 48.94C107.509 48.4777 107.283 47.7937 107.283 46.8785L107.287 46.8832Z" fill="white"/>
<path d="M115.26 47.2134L114.68 49.5297H113.679L116.156 40.4392H117.038L119.515 49.5297H118.501L117.92 47.2134H115.26ZM116.59 41.8922L115.472 46.3832H117.713L116.595 41.8922H116.59Z" fill="white"/>
<path d="M120.633 47.0389H121.567C121.595 47.6522 121.732 48.0956 121.982 48.3645C122.232 48.6334 122.591 48.7655 123.058 48.7655C123.525 48.7655 123.883 48.6334 124.119 48.3645C124.355 48.0956 124.468 47.6852 124.468 47.1332C124.468 46.6521 124.364 46.2841 124.157 46.0388C123.949 45.7935 123.581 45.5623 123.044 45.3406L122.515 45.1283C121.916 44.8925 121.468 44.5858 121.171 44.2179C120.874 43.8499 120.723 43.3546 120.723 42.7319C120.723 41.9959 120.93 41.4063 121.35 40.9675C121.765 40.5288 122.341 40.3071 123.067 40.3071C123.794 40.3071 124.308 40.5099 124.714 40.9204C125.119 41.3308 125.336 41.9393 125.374 42.7602H124.463C124.402 41.6987 123.93 41.1657 123.053 41.1657C122.595 41.1657 122.256 41.2978 122.025 41.5619C121.798 41.8261 121.68 42.1988 121.68 42.68C121.68 43.1093 121.784 43.4489 121.992 43.6942C122.199 43.9395 122.553 44.1613 123.053 44.3547L123.591 44.567C124.195 44.8028 124.652 45.1142 124.959 45.501C125.265 45.8878 125.421 46.4256 125.421 47.1191C125.421 47.9163 125.214 48.5343 124.803 48.9683C124.393 49.4023 123.794 49.6193 123.01 49.6193C122.227 49.6193 121.652 49.4023 121.251 48.9589C120.85 48.5202 120.642 47.8786 120.623 47.0342L120.633 47.0389Z" fill="white"/>
<path d="M128.261 47.2134L127.681 49.5297H126.681L129.157 40.4392H130.04L132.516 49.5297H131.502L130.922 47.2134H128.261ZM129.591 41.8922L128.473 46.3832H130.714L129.596 41.8922H129.591Z" fill="white"/>
<path d="M139.404 40.4392C140.14 40.4392 140.734 40.6656 141.182 41.1232C141.63 41.5808 141.852 42.2696 141.852 43.1895V46.77C141.852 47.6852 141.63 48.3692 141.182 48.8315C140.734 49.2938 140.14 49.525 139.404 49.525H137.045V40.4345H139.404V40.4392ZM140.503 48.1994C140.762 47.8833 140.89 47.4116 140.89 46.7889V43.2838C140.89 42.6187 140.762 42.1186 140.508 41.7884C140.253 41.4582 139.885 41.2931 139.399 41.2931H138.003V48.6711H139.399C139.875 48.6711 140.239 48.5155 140.498 48.1994H140.503Z" fill="white"/>
<path d="M144.932 44.4726H147.593V45.3406H144.932V48.6711H148.027V49.5297H143.984V40.4392H148.027V41.293H144.932V44.4679V44.4726Z" fill="white"/>
<path d="M152.811 46.8832V43.0904C152.811 42.1705 153.037 41.477 153.49 41.0147C153.943 40.5524 154.542 40.3212 155.287 40.3212C156.033 40.3212 156.594 40.5429 157.052 40.9817C157.509 41.4204 157.736 42.0856 157.736 42.9724V43.0904H156.773V42.996C156.773 42.3733 156.641 41.9157 156.372 41.628C156.103 41.3402 155.745 41.194 155.297 41.194C154.787 41.194 154.405 41.3543 154.15 41.6751C153.896 41.9959 153.768 42.5007 153.768 43.1847V46.8973C153.768 48.1428 154.278 48.7655 155.297 48.7655C155.754 48.7655 156.113 48.6192 156.377 48.3314C156.641 48.0437 156.773 47.6002 156.773 47.0011V46.8832H157.707V47.0153C157.707 47.8927 157.486 48.5485 157.037 48.9825C156.589 49.4165 156.009 49.6335 155.297 49.6335C154.551 49.6335 153.948 49.4023 153.49 48.94C153.032 48.4777 152.806 47.7937 152.806 46.8785L152.811 46.8832Z" fill="white"/>
<path d="M160.778 47.2134L160.198 49.5297H159.198L161.675 40.4392H162.557L165.034 49.5297H164.019L163.439 47.2134H160.778ZM162.109 41.8922L160.991 46.3832H163.231L162.113 41.8922H162.109Z" fill="white"/>
<path d="M167.562 45.5529V49.5297H166.6V40.4392H168.996C169.793 40.4392 170.378 40.6515 170.742 41.0713C171.105 41.4912 171.289 42.1375 171.289 43.0055C171.289 44.3075 170.841 45.1047 169.944 45.4019L171.553 49.525H170.525L169.024 45.5482H167.562V45.5529ZM168.987 44.7085C169.454 44.7085 169.793 44.5669 170.006 44.2792C170.223 43.9961 170.326 43.5716 170.326 43.0102C170.326 42.4488 170.223 42.0101 170.015 41.727C169.808 41.4393 169.463 41.2978 168.982 41.2978H167.557V44.7085H168.982H168.987Z" fill="white"/>
<path d="M178.549 49.5297H177.587L174.478 42.5479V49.5297H173.515V40.4392H174.478L177.587 47.4351V40.4392H178.549V49.5297Z" fill="white"/>
<path d="M181.733 44.4726H184.394V45.3406H181.733V48.6711H184.828V49.5297H180.785V40.4392H184.828V41.293H181.733V44.4679V44.4726Z" fill="white"/>
<path d="M186.304 47.0389H187.239C187.267 47.6522 187.404 48.0956 187.654 48.3645C187.904 48.6334 188.262 48.7655 188.729 48.7655C189.196 48.7655 189.555 48.6334 189.791 48.3645C190.027 48.0956 190.14 47.6852 190.14 47.1332C190.14 46.6521 190.036 46.2841 189.828 46.0388C189.621 45.7935 189.253 45.5623 188.715 45.3406L188.187 45.1283C187.588 44.8925 187.139 44.5858 186.842 44.2179C186.545 43.8499 186.394 43.3546 186.394 42.7319C186.394 41.9959 186.602 41.4063 187.022 40.9675C187.437 40.5288 188.012 40.3071 188.739 40.3071C189.465 40.3071 189.979 40.5099 190.385 40.9204C190.791 41.3308 191.008 41.9393 191.046 42.7602H190.135C190.074 41.6987 189.602 41.1657 188.725 41.1657C188.267 41.1657 187.927 41.2978 187.696 41.5619C187.47 41.8261 187.352 42.1988 187.352 42.68C187.352 43.1093 187.456 43.4489 187.663 43.6942C187.871 43.9395 188.224 44.1613 188.725 44.3547L189.262 44.567C189.866 44.8028 190.324 45.1142 190.63 45.501C190.937 45.8878 191.093 46.4256 191.093 47.1191C191.093 47.9163 190.885 48.5343 190.475 48.9683C190.064 49.4023 189.465 49.6193 188.682 49.6193C187.899 49.6193 187.323 49.4023 186.922 48.9589C186.521 48.5202 186.314 47.8786 186.295 47.0342L186.304 47.0389Z" fill="white"/>
<path d="M209.962 44.7368H194.447V45.4774H209.962V44.7368Z" fill="white"/>
<path d="M102.843 45.1047H87.3278V45.8453H102.843V45.1047Z" fill="white"/>
<path d="M64 27.7823C65.1605 27.7823 66.2691 27.7257 66.2691 26.2916V8.2096C66.2691 6.77078 65.1652 6.71889 64 6.71889V2.18542H74.5624C78.5439 2.18542 81.7517 5.44518 81.7517 9.37481V15.4556C81.7517 17.9983 80.6479 19.9891 78.9873 21.2062L80.813 26.5699C81.3649 27.8389 83.134 27.787 84.2426 27.787V32.3205H75.1756V27.787C76.0059 27.787 76.3927 27.6738 76.0625 26.6265L74.6803 22.645H70.812V26.2963C70.812 27.7351 71.9159 27.787 73.0811 27.787V32.3205H64.0142V27.787L64 27.7823ZM74.5624 18.0502C76.0012 18.0502 77.2183 16.8897 77.2183 15.4509V9.37009C77.2183 7.93127 76.0012 6.77078 74.5624 6.77078H71.0809V18.0502H74.5624Z" fill="white"/>
<path d="M91.4225 32.7592C87.3325 32.7592 84.0161 29.4428 84.0161 25.3481V9.09648C84.0161 4.94985 87.3325 1.63348 91.4225 1.63348H91.7008C95.7909 1.63348 99.1638 4.94985 99.1638 9.09648V25.3528C99.1638 29.4428 95.7909 32.7639 91.7008 32.7639H91.4225V32.7592ZM91.4225 6.16695C89.8752 6.16695 88.5496 7.49255 88.5496 9.09648V25.3528C88.5496 26.9567 89.8752 28.2257 91.4225 28.2257H91.7008C93.3048 28.2257 94.5737 26.952 94.5737 25.3528V9.09648C94.5737 7.49255 93.3 6.16695 91.7008 6.16695H91.4225V6.16695Z" fill="white"/>
<path d="M104.471 27.7823C105.631 27.7823 106.74 27.7257 106.74 26.2916V6.71889H105.636C104.197 6.71889 104.145 7.82277 104.145 8.98798H99.612V2.18542H118.52V8.98798H113.986C113.986 7.82749 113.929 6.71889 112.495 6.71889H111.335V26.2916C111.335 27.7304 112.439 27.7823 113.604 27.7823V32.3157H104.48V27.7823H104.471Z" fill="white"/>
<path d="M114.642 27.7823C115.746 27.7823 117.463 27.7257 117.793 26.4567L121.661 8.2096C121.94 6.93589 121.275 6.71889 120.114 6.71889V2.18542H130.455V6.71889C129.294 6.71889 128.629 6.94061 128.907 8.2096L132.724 26.5652C133.111 27.7257 134.771 27.7823 135.875 27.7823V32.3157H126.034V27.7823C126.973 27.7823 128.355 27.7257 128.025 26.2916L127.917 25.683L123.053 23.6923L122.501 26.2916C122.171 27.7304 123.553 27.7823 124.492 27.7823V32.3157H114.651V27.7823H114.642ZM126.803 20.3712L125.256 13.1818L123.982 19.2107L126.803 20.3712V20.3712Z" fill="white"/>
<path d="M146.433 32.3157V27.7823C147.593 27.7823 148.702 27.7257 148.702 26.2916V8.2096C148.702 6.77078 147.598 6.71889 146.433 6.71889V2.18542H157.103C161.028 2.18542 164.236 5.33668 164.236 9.26159V25.183C164.236 29.1079 161.028 32.3157 157.103 32.3157H146.433ZM153.235 27.7823H157.103C158.542 27.7823 159.646 26.6218 159.646 25.183V9.26159C159.646 7.87938 158.542 6.71889 157.103 6.71889H153.235V27.7823Z" fill="white"/>
<path d="M172.586 32.7592C168.496 32.7592 165.18 29.4428 165.18 25.3481V9.09648C165.18 4.94985 168.496 1.63348 172.586 1.63348H172.864C176.954 1.63348 180.327 4.94985 180.327 9.09648V25.3528C180.327 29.4428 176.954 32.7639 172.864 32.7639H172.586V32.7592ZM172.586 6.16695C171.039 6.16695 169.713 7.49255 169.713 9.09648V25.3528C169.713 26.9567 171.039 28.2257 172.586 28.2257H172.864C174.468 28.2257 175.737 26.952 175.737 25.3528V9.09648C175.737 7.49255 174.464 6.16695 172.864 6.16695H172.586V6.16695Z" fill="white"/>
<path d="M206.255 14.2951C207.472 15.5688 208.189 17.2812 208.189 19.1588V25.2396C208.189 29.1645 204.981 32.3157 201.056 32.3157H190.88V27.7823C192.041 27.7823 193.149 27.7257 193.149 26.2916V8.2096C193.149 6.77078 192.046 6.71889 190.88 6.71889V2.18542H201.056C204.981 2.18542 208.189 5.50179 208.189 9.4267C208.189 11.309 207.472 13.0214 206.255 14.2904V14.2951ZM197.683 6.71889V12.026H201.056C202.438 12.026 203.599 10.8655 203.599 9.4267C203.599 7.98788 202.438 6.71889 201.056 6.71889H197.683ZM203.599 19.1588C203.599 17.72 202.438 16.5595 201.056 16.5595H197.683V27.8389H201.056C202.438 27.8389 203.599 26.6784 203.599 25.2396V19.1588V19.1588Z" fill="white"/>
<path d="M216.539 32.7592C212.449 32.7592 209.127 29.4428 209.127 25.3481V9.09648C209.127 4.94985 212.444 1.63348 216.539 1.63348H216.817C220.907 1.63348 224.28 4.94985 224.28 9.09648V25.3528C224.28 29.4428 220.907 32.7639 216.817 32.7639H216.539V32.7592ZM216.539 6.16695C214.991 6.16695 213.666 7.49255 213.666 9.09648V25.3528C213.666 26.9567 214.991 28.2257 216.539 28.2257H216.817C218.421 28.2257 219.69 26.952 219.69 25.3528V9.09648C219.69 7.49255 218.416 6.16695 216.817 6.16695H216.539V6.16695Z" fill="white"/>
<path d="M224.723 27.7823C225.884 27.7823 226.992 27.7257 226.992 26.2916V8.2096C226.992 6.77078 225.889 6.71889 224.723 6.71889V2.18542H233.79V6.71889C232.63 6.71889 231.521 6.7755 231.521 8.2096V26.2868C231.521 27.7257 232.625 27.7776 233.79 27.7776V32.311H224.723V27.7776V27.7823Z" fill="white"/>
</svg>
