<svg width="231" height="64" viewBox="0 0 231 64" fill="none" xmlns="http://www.w3.org/2000/svg">
<path d="M114.083 58.1624V54.6625C114.083 53.8136 114.292 53.1737 114.71 52.7471C115.128 52.3205 115.681 52.1072 116.368 52.1072C117.056 52.1072 117.574 52.3118 117.996 52.7166C118.419 53.1215 118.628 53.7353 118.628 54.5536V54.6625H117.74V54.5754C117.74 54.0008 117.618 53.5785 117.37 53.313C117.121 53.0475 116.791 52.9125 116.377 52.9125C115.907 52.9125 115.554 53.0605 115.319 53.3565C115.084 53.6525 114.967 54.1183 114.967 54.7495V58.1755C114.967 59.3247 115.437 59.8993 116.377 59.8993C116.799 59.8993 117.13 59.7644 117.374 59.4988C117.618 59.2333 117.74 58.8241 117.74 58.2712V58.1624H118.602V58.2843C118.602 59.094 118.397 59.6991 117.983 60.0996C117.57 60.5 117.034 60.7003 116.377 60.7003C115.689 60.7003 115.132 60.487 114.71 60.0604C114.288 59.6338 114.079 59.0026 114.079 58.1581L114.083 58.1624Z" fill="#0D0D0D"/>
<path d="M121.44 58.4672L120.904 60.6046H119.981L122.267 52.2161H123.081L125.366 60.6046H124.43L123.895 58.4672H121.44ZM122.667 53.5568L121.636 57.701H123.703L122.672 53.5568H122.667Z" fill="#0D0D0D"/>
<path d="M126.398 58.3059H127.26C127.286 58.8718 127.412 59.281 127.643 59.5292C127.874 59.7773 128.205 59.8992 128.636 59.8992C129.066 59.8992 129.397 59.7773 129.615 59.5292C129.833 59.281 129.937 58.9023 129.937 58.393C129.937 57.949 129.841 57.6094 129.65 57.3831C129.458 57.1567 129.119 56.9434 128.622 56.7388L128.135 56.5429C127.582 56.3253 127.168 56.0423 126.894 55.7028C126.62 55.3632 126.481 54.9061 126.481 54.3315C126.481 53.6524 126.672 53.1083 127.06 52.7034C127.443 52.2986 127.974 52.094 128.644 52.094C129.315 52.094 129.789 52.2812 130.163 52.6599C130.538 53.0386 130.738 53.6002 130.773 54.3576H129.933C129.876 53.3782 129.441 52.8863 128.631 52.8863C128.209 52.8863 127.895 53.0082 127.682 53.2519C127.473 53.4957 127.364 53.8396 127.364 54.2836C127.364 54.6798 127.46 54.9932 127.652 55.2196C127.843 55.4459 128.17 55.6505 128.631 55.829L129.127 56.0249C129.685 56.2425 130.107 56.5299 130.39 56.8868C130.673 57.2438 130.816 57.74 130.816 58.3799C130.816 59.1156 130.625 59.6859 130.246 60.0864C129.867 60.4869 129.315 60.6871 128.592 60.6871C127.869 60.6871 127.338 60.4869 126.968 60.0777C126.598 59.6728 126.407 59.0808 126.389 58.3016L126.398 58.3059Z" fill="#0D0D0D"/>
<path d="M133.437 58.4672L132.902 60.6046H131.979L134.264 52.2161H135.078L137.364 60.6046H136.428L135.892 58.4672H133.437ZM134.665 53.5568L133.633 57.701H135.701L134.669 53.5568H134.665Z" fill="#0D0D0D"/>
<path d="M143.719 52.216C144.398 52.216 144.947 52.425 145.36 52.8472C145.774 53.2695 145.978 53.905 145.978 54.7539V58.0579C145.978 58.9025 145.774 59.5337 145.36 59.9603C144.947 60.3869 144.398 60.6002 143.719 60.6002H141.543V52.2117H143.719V52.216ZM144.733 59.3769C144.973 59.0853 145.09 58.65 145.09 58.0754V54.841C145.09 54.2272 144.973 53.7657 144.738 53.461C144.503 53.1563 144.163 53.0039 143.715 53.0039H142.426V59.8123H143.715C144.154 59.8123 144.49 59.6686 144.729 59.3769H144.733Z" fill="#0D0D0D"/>
<path d="M148.821 55.938H151.276V56.739H148.821V59.8123H151.677V60.6046H147.946V52.2161H151.677V53.004H148.821V55.9337V55.938Z" fill="#0D0D0D"/>
<path d="M156.091 58.1624V54.6625C156.091 53.8136 156.3 53.1737 156.718 52.7471C157.136 52.3205 157.688 52.1072 158.376 52.1072C159.064 52.1072 159.582 52.3118 160.004 52.7166C160.427 53.1215 160.636 53.7353 160.636 54.5536V54.6625H159.747V54.5754C159.747 54.0008 159.626 53.5785 159.377 53.313C159.129 53.0475 158.798 52.9125 158.385 52.9125C157.915 52.9125 157.562 53.0605 157.327 53.3565C157.092 53.6525 156.975 54.1183 156.975 54.7495V58.1755C156.975 59.3247 157.445 59.8993 158.385 59.8993C158.807 59.8993 159.138 59.7644 159.382 59.4988C159.626 59.2333 159.747 58.8241 159.747 58.2712V58.1624H160.609V58.2843C160.609 59.094 160.405 59.6991 159.991 60.0996C159.578 60.5 159.042 60.7003 158.385 60.7003C157.697 60.7003 157.14 60.487 156.718 60.0604C156.295 59.6338 156.086 59.0026 156.086 58.1581L156.091 58.1624Z" fill="#0D0D0D"/>
<path d="M163.443 58.4672L162.908 60.6046H161.985L164.27 52.2161H165.084L167.37 60.6046H166.434L165.898 58.4672H163.443ZM164.671 53.5568L163.639 57.701H165.707L164.675 53.5568H164.671Z" fill="#0D0D0D"/>
<path d="M169.703 56.9349V60.6046H168.815V52.2161H171.026C171.762 52.2161 172.302 52.412 172.637 52.7994C172.972 53.1868 173.142 53.7832 173.142 54.5842C173.142 55.7856 172.729 56.5213 171.901 56.7956L173.386 60.6002H172.437L171.053 56.9305H169.703V56.9349ZM171.018 56.1557C171.449 56.1557 171.762 56.0251 171.958 55.7595C172.158 55.4983 172.254 55.1066 172.254 54.5885C172.254 54.0705 172.158 53.6657 171.967 53.4045C171.775 53.1389 171.457 53.0083 171.013 53.0083H169.699V56.1557H171.013H171.018Z" fill="#0D0D0D"/>
<path d="M179.842 60.6046H178.954L176.085 54.1619V60.6046H175.197V52.2161H176.085L178.954 58.6718V52.2161H179.842V60.6046Z" fill="#0D0D0D"/>
<path d="M182.78 55.938H185.235V56.739H182.78V59.8123H185.636V60.6046H181.905V52.2161H185.636V53.004H182.78V55.9337V55.938Z" fill="#0D0D0D"/>
<path d="M186.998 58.3059H187.86C187.886 58.8718 188.012 59.281 188.243 59.5292C188.474 59.7773 188.805 59.8992 189.236 59.8992C189.667 59.8992 189.997 59.7773 190.215 59.5292C190.433 59.281 190.537 58.9023 190.537 58.393C190.537 57.949 190.442 57.6094 190.25 57.3831C190.058 57.1567 189.719 56.9434 189.223 56.7388L188.735 56.5429C188.182 56.3253 187.769 56.0423 187.494 55.7028C187.22 55.3632 187.081 54.9061 187.081 54.3315C187.081 53.6524 187.272 53.1083 187.66 52.7034C188.043 52.2986 188.574 52.094 189.244 52.094C189.915 52.094 190.389 52.2812 190.764 52.6599C191.138 53.0386 191.338 53.6002 191.373 54.3576H190.533C190.476 53.3782 190.041 52.8863 189.231 52.8863C188.809 52.8863 188.496 53.0082 188.282 53.2519C188.073 53.4957 187.965 53.8396 187.965 54.2836C187.965 54.6798 188.06 54.9932 188.252 55.2196C188.443 55.4459 188.77 55.6505 189.231 55.829L189.728 56.0249C190.285 56.2425 190.707 56.5299 190.99 56.8868C191.273 57.2438 191.417 57.74 191.417 58.3799C191.417 59.1156 191.225 59.6859 190.846 60.0864C190.468 60.4869 189.915 60.6871 189.192 60.6871C188.47 60.6871 187.938 60.4869 187.568 60.0777C187.198 59.6728 187.007 59.0808 186.989 58.3016L186.998 58.3059Z" fill="#0D0D0D"/>
<path d="M208.829 56.1816H194.512V56.8651H208.829V56.1816Z" fill="#0D0D0D"/>
<path d="M109.982 56.5212H95.6647V57.2047H109.982V56.5212Z" fill="#0D0D0D"/>
<path d="M74.1385 40.5364C75.2094 40.5364 76.2324 40.4842 76.2324 39.1609V22.4752C76.2324 21.1475 75.2137 21.0996 74.1385 21.0996V16.9163H83.8852C87.5592 16.9163 90.5194 19.9243 90.5194 23.5505V29.1617C90.5194 31.508 89.5008 33.345 87.9684 34.4682L89.6531 39.4177C90.1624 40.5887 91.7949 40.5408 92.8179 40.5408V44.7242H84.4511V40.5408C85.2173 40.5408 85.5742 40.4363 85.2695 39.4699L83.994 35.7959H80.4244V39.1652C80.4244 40.4929 81.4431 40.5408 82.5183 40.5408V44.7242H74.1515V40.5408L74.1385 40.5364ZM83.8852 31.5559C85.2129 31.5559 86.336 30.485 86.336 29.1573V23.5461C86.336 22.2184 85.2129 21.1475 83.8852 21.1475H80.6726V31.5559H83.8852Z" fill="#0D0D0D"/>
<path d="M99.4433 45.1291C95.6691 45.1291 92.6089 42.0688 92.6089 38.2903V23.2937C92.6089 19.4672 95.6691 16.407 99.4433 16.407H99.7002C103.474 16.407 106.587 19.4672 106.587 23.2937V38.2946C106.587 42.0688 103.474 45.1334 99.7002 45.1334H99.4433V45.1291ZM99.4433 20.5904C98.0155 20.5904 96.7923 21.8136 96.7923 23.2937V38.2946C96.7923 39.7747 98.0155 40.9457 99.4433 40.9457H99.7002C101.18 40.9457 102.351 39.7703 102.351 38.2946V23.2937C102.351 21.8136 101.176 20.5904 99.7002 20.5904H99.4433Z" fill="#0D0D0D"/>
<path d="M111.484 40.5364C112.555 40.5364 113.578 40.4842 113.578 39.1609V21.0996H112.559C111.232 21.0996 111.184 22.1183 111.184 23.1935H107V16.9163H124.448V23.1935H120.264C120.264 22.1226 120.212 21.0996 118.889 21.0996H117.818V39.1609C117.818 40.4886 118.837 40.5364 119.912 40.5364V44.7198H111.493V40.5364H111.484Z" fill="#0D0D0D"/>
<path d="M120.87 40.5364C121.888 40.5364 123.473 40.4842 123.777 39.3132L127.347 22.4752C127.604 21.2999 126.99 21.0996 125.919 21.0996V16.9163H135.461V21.0996C134.39 21.0996 133.777 21.3042 134.033 22.4752L137.555 39.4133C137.912 40.4842 139.444 40.5364 140.463 40.5364V44.7198H131.382V40.5364C132.249 40.5364 133.524 40.4842 133.219 39.1609L133.119 38.5993L128.631 36.7623L128.122 39.1609C127.817 40.4886 129.093 40.5364 129.959 40.5364V44.7198H120.878V40.5364H120.87ZM132.092 33.6977L130.664 27.0634L129.489 32.6268L132.092 33.6977Z" fill="#0D0D0D"/>
<path d="M150.205 44.7198V40.5364C151.276 40.5364 152.299 40.4842 152.299 39.1609V22.4752C152.299 21.1475 151.281 21.0996 150.205 21.0996V16.9163H160.052C163.674 16.9163 166.634 19.8242 166.634 23.446V38.1379C166.634 41.7597 163.674 44.7198 160.052 44.7198H150.205ZM156.483 40.5364H160.052C161.38 40.5364 162.399 39.4656 162.399 38.1379V23.446C162.399 22.1705 161.38 21.0996 160.052 21.0996H156.483V40.5364Z" fill="#0D0D0D"/>
<path d="M174.339 45.1291C170.565 45.1291 167.505 42.0688 167.505 38.2903V23.2937C167.505 19.4672 170.565 16.407 174.339 16.407H174.596C178.37 16.407 181.483 19.4672 181.483 23.2937V38.2946C181.483 42.0688 178.37 45.1334 174.596 45.1334H174.339V45.1291ZM174.339 20.5904C172.911 20.5904 171.688 21.8136 171.688 23.2937V38.2946C171.688 39.7747 172.911 40.9457 174.339 40.9457H174.596C176.076 40.9457 177.247 39.7703 177.247 38.2946V23.2937C177.247 21.8136 176.072 20.5904 174.596 20.5904H174.339Z" fill="#0D0D0D"/>
<path d="M205.408 28.0908C206.531 29.2661 207.192 30.8463 207.192 32.5789V38.1901C207.192 41.8119 204.232 44.7198 200.611 44.7198H191.221V40.5364C192.292 40.5364 193.315 40.4842 193.315 39.1609V22.4752C193.315 21.1475 192.296 21.0996 191.221 21.0996V16.9163H200.611C204.232 16.9163 207.192 19.9765 207.192 23.5983C207.192 25.3352 206.531 26.9154 205.408 28.0864V28.0908ZM197.498 21.0996V25.9969H200.611C201.886 25.9969 202.957 24.9261 202.957 23.5983C202.957 22.2706 201.886 21.0996 200.611 21.0996H197.498ZM202.957 32.5789C202.957 31.2512 201.886 30.1803 200.611 30.1803H197.498V40.5887H200.611C201.886 40.5887 202.957 39.5178 202.957 38.1901V32.5789Z" fill="#0D0D0D"/>
<path d="M214.898 45.1291C211.123 45.1291 208.059 42.0688 208.059 38.2903V23.2937C208.059 19.4672 211.119 16.407 214.898 16.407H215.154C218.929 16.407 222.041 19.4672 222.041 23.2937V38.2946C222.041 42.0688 218.929 45.1334 215.154 45.1334H214.898V45.1291ZM214.898 20.5904C213.47 20.5904 212.247 21.8136 212.247 23.2937V38.2946C212.247 39.7747 213.47 40.9457 214.898 40.9457H215.154C216.634 40.9457 217.805 39.7703 217.805 38.2946V23.2937C217.805 21.8136 216.63 20.5904 215.154 20.5904H214.898Z" fill="#0D0D0D"/>
<path d="M222.45 40.5364C223.521 40.5364 224.544 40.4842 224.544 39.1609V22.4752C224.544 21.1475 223.525 21.0996 222.45 21.0996V16.9163H230.817V21.0996C229.746 21.0996 228.723 21.1519 228.723 22.4752V39.1565C228.723 40.4842 229.742 40.5321 230.817 40.5321V44.7155H222.45V40.5321V40.5364Z" fill="#0D0D0D"/>
<path d="M44.3368 38.5906C42.8611 38.8605 41.4768 39.4569 40.0838 40.0576C31.8564 43.5837 25.3049 52.1986 24.0773 60.9745C24.0381 61.2618 23.8205 62.2152 23.7856 62.4981C23.7726 62.62 23.4156 62.3109 23.4156 62.3109C23.4156 62.3109 23.1283 62.1237 23.1414 62.028C23.1718 61.745 23.2371 61.227 23.2632 60.9397C23.7726 55.5374 26.5934 49.9523 31.0249 45.4817C35.2823 41.1894 39.3307 38.7386 44.4065 38.0813" fill="#F19E04"/>
<path d="M37.6721 50.7575L36.9625 51.454C33.7673 54.6014 31.7823 58.7804 31.3687 63.2206L31.2947 63.9998L32.074 63.904C34.8904 63.5645 36.8798 62.4849 37.9899 60.7001C39.6702 57.9881 38.9258 54.3053 38.0029 51.6935L37.6721 50.7532V50.7575Z" fill="#0D0D0D"/>
<path d="M55.4679 28.6873L55.198 28.918C55.1632 28.9484 51.6284 31.9129 47.4799 32.666L46.0346 32.9272L47.2187 33.7979C47.3101 33.8631 49.4867 35.439 52.3206 35.439C54.989 35.439 57.2831 34.0895 59.1376 31.4297L59.451 30.977L55.4635 28.6873H55.4679Z" fill="#0D0D0D"/>
<path d="M4.34446 28.6873L4.61436 28.918C4.64918 28.9484 8.18394 31.9129 12.3325 32.666L13.7777 32.9272L12.5937 33.7979C12.5023 33.8631 10.3257 35.439 7.49179 35.439C4.82331 35.439 2.5292 34.0895 0.674755 31.4297L0.361328 30.977L4.34881 28.6873H4.34446Z" fill="#0D0D0D"/>
<path d="M6.53416 26.7762C9.08075 28.4043 12.3326 29.6058 16.2025 30.3502L16.5246 30.4111L16.7597 30.1847C19.2192 27.8166 21.9356 25.701 24.8435 23.8988C25.3311 23.5984 25.8317 23.2981 26.3323 23.0151L28.4392 21.8093L26.0145 21.831C25.7403 21.831 25.466 21.831 25.2005 21.831C14.4787 21.831 10.1429 19.8025 7.3569 13.473C6.23379 10.9221 6.57769 8.19698 8.37554 5.37179C9.75549 3.19956 11.5185 1.78479 11.5359 1.76738L13.7604 0L10.9874 0.661679C7.89234 1.39736 5.38057 2.73378 3.52178 4.63175C0.435395 7.78778 -0.631127 12.2715 0.357038 17.9654C0.988245 21.596 3.0647 24.5605 6.53416 26.7762Z" fill="#0D0D0D"/>
<path d="M56.395 4.63175C54.5362 2.73378 52.0245 1.39736 48.9294 0.661679L46.1564 0L48.3896 1.77173C48.4592 1.82832 55.2763 7.3307 52.5686 13.4773C50.3703 18.4661 47.3448 20.6252 41.3984 21.4523C38.4078 21.8659 35.5347 22.6538 32.8619 23.79C26.1798 26.6326 20.2029 31.1511 15.5842 36.8625L15.4319 37.054L15.4449 37.2978C15.6495 40.7237 16.9424 43.8493 19.2931 46.583L19.8547 47.2404L20.3074 46.5047C20.5599 46.0998 20.8211 45.695 21.0866 45.3032C22.3447 43.4401 23.7899 41.6858 25.3832 40.0925C26.9764 38.4992 28.7264 37.054 30.5939 35.7959C32.4745 34.5248 34.49 33.4322 36.5751 32.5485C38.5863 31.6996 40.6889 31.0336 42.8263 30.5722L43.5315 30.4198L43.5228 30.3893C47.2316 29.6972 50.392 28.5828 52.9169 27.0722C56.6693 24.826 58.9068 21.7657 59.5641 17.9698C60.5523 12.2759 59.4901 7.79214 56.3994 4.6361L56.395 4.63175Z" fill="#0D0D0D"/>
<path d="M29.9584 3.62622L31.1337 6.01175L33.7631 6.39047L31.8607 8.24491L32.3091 10.8655L29.9584 9.62921L27.6077 10.8655L28.0561 8.24491L26.1537 6.39047L28.783 6.01175L29.9584 3.62622Z" fill="#F19E04"/>
<path d="M26.5673 63.6778C26.6587 58.3278 28.7787 53.8658 31.8651 49.4648C34.9776 45.0202 43.0266 42.1776 43.1876 42.5824L42.7784 43.4313C42.7784 43.4313 38.4122 45.0333 34.4335 48.7552C31.5604 51.4411 29.0617 55.5157 27.734 59.5293C27.2812 60.8961 26.7676 62.2326 26.7414 63.717L26.5673 63.6778Z" fill="white"/>
<path d="M21.4218 59.6772L21.6438 60.1908C22.706 58.6237 22.7539 55.0759 23.4591 52.5336C24.5474 48.6202 27.1723 45.2334 30.7854 42.2297C35.809 38.0507 44.5022 36.1397 44.5022 36.1397L44.4804 35.5781C28.6045 38.338 24.3384 47.9628 24.3384 47.9628C24.3384 47.9628 21.2042 48.3503 21.4175 59.6772H21.4218Z" fill="white"/>
<path d="M29.6058 42.6304C33.8109 38.8562 39.2785 36.3183 44.4848 35.6697C44.4718 35.3258 44.45 34.9775 44.4152 34.6293L44.3455 33.9241L43.6534 34.0721C35.0167 35.9222 27.4771 41.4463 22.9672 49.2297L22.9454 49.2689C22.8105 49.5258 19.7589 55.3764 21.4175 59.6817C21.6395 53.2216 24.5213 47.1925 29.6014 42.6304H29.6058Z" fill="#8A0304"/>
<path d="M26.7414 63.7215C26.8372 63.7389 26.9199 63.765 27.0157 63.7824L27.7078 63.9087L27.7601 63.2078C27.9473 60.7875 28.5219 58.4281 29.4665 56.1905C30.0324 54.8541 30.7333 53.5612 31.5473 52.3554C32.357 51.1583 33.2842 50.0352 34.3029 49.0165C35.3258 47.9936 36.449 47.0663 37.6417 46.261C38.8475 45.447 40.1404 44.7461 41.4768 44.1802C41.7729 44.054 42.0776 43.9321 42.3867 43.8189L42.613 43.7362L42.7262 43.5229C42.8524 43.2835 42.9656 43.0397 43.0788 42.7959C35.1604 44.7766 27.303 52.8343 26.7327 63.7258L26.7414 63.7215Z" fill="#8A0304"/>
<path d="M23.7944 61.2966C23.7683 61.5926 23.7378 61.8842 23.7074 62.1715C23.6943 62.2804 23.6856 62.3892 23.6725 62.5024C24.4692 63.0378 25.4399 63.4252 26.5674 63.6777C26.846 58.7238 28.6743 53.9441 31.8173 50.0393C34.8645 46.2521 38.9477 43.5967 43.1877 42.5824C43.758 41.3069 44.1367 39.9748 44.3369 38.5862C34.1201 40.7279 24.6999 50.9883 23.7988 61.2922L23.7944 61.2966Z" fill="#8A0304"/>
<path d="M21.5873 60.0693C21.6004 60.0998 21.6135 60.1259 21.6265 60.1564C22.0096 60.9443 22.5494 61.6103 23.2241 62.1588V62.124C23.2589 61.8367 23.2894 61.5494 23.3155 61.2577C24.2384 50.7013 33.9372 40.1885 44.4109 38.0816C44.4893 37.3502 44.5197 36.6058 44.498 35.8484C34.551 37.1195 21.8355 45.7692 21.5873 60.0693Z" fill="#8A0304"/>
</svg>
