<svg width="64" height="69" viewBox="0 0 64 69" fill="none" xmlns="http://www.w3.org/2000/svg">
<path d="M47.3546 41.2173C45.7785 41.5056 44.3 42.1426 42.8121 42.7842C34.0247 46.5502 27.0273 55.7515 25.7162 65.1247C25.6743 65.4316 25.4418 66.4498 25.4046 66.752C25.3907 66.8822 25.0094 66.5521 25.0094 66.5521C25.0094 66.5521 24.7026 66.3522 24.7165 66.2499C24.7491 65.9477 24.8188 65.3944 24.8467 65.0875C25.3907 59.3176 28.4035 53.3524 33.1367 48.5774C37.6838 43.993 42.0078 41.3754 47.429 40.6733" fill="#F19E04"/>
<path d="M40.2362 54.2122L39.4784 54.9561C36.0657 58.3176 33.9455 62.7811 33.5038 67.5235L33.4248 68.3558L34.2571 68.2535C37.2652 67.8908 39.39 66.7378 40.5756 64.8315C42.3703 61.9349 41.5753 58.0015 40.5896 55.2118L40.2362 54.2075V54.2122Z" fill="#0D0D0D"/>
<path d="M59.2432 30.6399L58.9549 30.8863C58.9177 30.9189 55.1424 34.0851 50.7115 34.8895L49.1678 35.1684L50.4325 36.0983C50.5301 36.1681 52.8549 37.8512 55.8816 37.8512C58.7317 37.8512 61.182 36.4098 63.1627 33.569L63.4974 33.0855L59.2385 30.6399H59.2432Z" fill="#0D0D0D"/>
<path d="M4.6401 30.6399L4.92837 30.8863C4.96556 30.9189 8.7409 34.0851 13.1718 34.8895L14.7154 35.1684L13.4508 36.0983C13.3531 36.1681 11.0284 37.8512 8.00164 37.8512C5.15154 37.8512 2.70128 36.4098 0.720624 33.569L0.385864 33.0855L4.64475 30.6399H4.6401Z" fill="#0D0D0D"/>
<path d="M6.97888 28.5987C9.6988 30.3376 13.1719 31.6208 17.3053 32.4159L17.6493 32.481L17.9004 32.2392C20.5273 29.7099 23.4286 27.4503 26.5344 25.5254C27.0552 25.2046 27.5898 24.8838 28.1245 24.5816L30.3749 23.2937L27.7851 23.3169C27.4922 23.3169 27.1993 23.3169 26.9157 23.3169C15.4641 23.3169 10.8333 21.1503 7.85763 14.39C6.65807 11.6654 7.02538 8.75489 8.94559 5.73741C10.4195 3.41734 12.3025 1.90627 12.3211 1.88767L14.6969 0L11.7353 0.706715C8.42951 1.49247 5.74678 2.91985 3.76147 4.947C0.465021 8.31784 -0.674092 13.1068 0.381331 19.1882C1.0555 23.0659 3.27328 26.2321 6.97888 28.5987V28.5987Z" fill="#0D0D0D"/>
<path d="M60.2334 4.947C58.2481 2.91985 55.5653 1.49247 52.2596 0.706714L49.2979 0L51.6831 1.89232C51.7575 1.95276 59.0385 7.82965 56.1465 14.3947C53.7986 19.7229 50.5672 22.029 44.2161 22.9124C41.0219 23.3541 37.9533 24.1957 35.0985 25.4092C27.9616 28.4453 21.578 33.2714 16.6449 39.3714L16.4822 39.576L16.4961 39.8364C16.7146 43.4955 18.0955 46.8338 20.6062 49.7536L21.206 50.4557L21.6895 49.6699C21.9592 49.2375 22.2382 48.8051 22.5218 48.3867C23.8655 46.3967 25.4091 44.523 27.1108 42.8213C28.8125 41.1196 30.6816 39.576 32.6762 38.2323C34.6847 36.8747 36.8374 35.7077 39.0645 34.7638C41.2125 33.8572 43.4582 33.1458 45.7411 32.653L46.4943 32.4903L46.485 32.4577C50.4463 31.7185 53.8218 30.5282 56.5185 28.9149C60.5263 26.5157 62.9161 23.2472 63.6182 19.1929C64.6736 13.1114 63.5391 8.32249 60.238 4.95165L60.2334 4.947Z" fill="#0D0D0D"/>
<path d="M31.9974 3.87305L33.2528 6.42094L36.0611 6.82544L34.0293 8.8061L34.5081 11.6051L31.9974 10.2846L29.4867 11.6051L29.9656 8.8061L27.9338 6.82544L30.7421 6.42094L31.9974 3.87305Z" fill="#F19E04"/>
<path d="M28.3755 68.012C28.4731 62.2978 30.7374 57.5321 34.0339 52.8316C37.3582 48.0845 45.955 45.0484 46.127 45.4808L45.69 46.3874C45.69 46.3874 41.0266 48.0984 36.777 52.0737C33.7084 54.9424 31.0396 59.2943 29.6215 63.5811C29.138 65.041 28.5894 66.4684 28.5615 68.0538L28.3755 68.012V68.012Z" fill="white"/>
<path d="M22.8799 63.739L23.117 64.2877C24.2515 62.6139 24.3026 58.8246 25.0558 56.1093C26.2182 51.9295 29.0218 48.3122 32.8808 45.1041C38.2463 40.6406 47.5312 38.5995 47.5312 38.5995L47.508 37.9998C30.5515 40.9475 25.995 51.2274 25.995 51.2274C25.995 51.2274 22.6474 51.6412 22.8753 63.739H22.8799Z" fill="white"/>
<path d="M31.6208 45.532C36.1121 41.501 41.9518 38.7903 47.5126 38.0976C47.4986 37.7303 47.4754 37.3583 47.4382 36.9864L47.3638 36.2332L46.6245 36.3912C37.4 38.3672 29.3472 44.2674 24.5304 52.5806L24.5071 52.6224C24.363 52.8967 21.1038 59.1456 22.8752 63.7439C23.1123 56.8441 26.1902 50.4046 31.6161 45.532H31.6208Z" fill="#8A0304"/>
<path d="M28.5615 68.0586C28.6638 68.0772 28.7522 68.1051 28.8545 68.1237L29.5937 68.2585L29.6495 67.51C29.8494 64.9249 30.4632 62.4049 31.4721 60.0151C32.0765 58.5877 32.8251 57.2068 33.6945 55.9189C34.5593 54.6403 35.5497 53.4408 36.6376 52.3528C37.7302 51.2602 38.9298 50.2698 40.2037 49.4097C41.4916 48.5402 42.8725 47.7917 44.2999 47.1873C44.6161 47.0524 44.9415 46.9222 45.2716 46.8014L45.5134 46.713L45.6343 46.4852C45.7691 46.2295 45.89 45.9691 46.0109 45.7087C37.5536 47.8242 29.1613 56.4303 28.5522 68.0632L28.5615 68.0586Z" fill="#8A0304"/>
<path d="M25.4139 65.4685C25.386 65.7847 25.3534 66.0962 25.3209 66.4031C25.3069 66.5193 25.2976 66.6355 25.2837 66.7564C26.1345 67.3283 27.1714 67.7421 28.3756 68.0118C28.6731 62.7207 30.6259 57.6156 33.9828 53.4451C37.2374 49.4001 41.5986 46.5639 46.1271 45.4806C46.7362 44.1183 47.1407 42.6956 47.3546 41.2124C36.4423 43.4999 26.381 54.4587 25.4185 65.4639L25.4139 65.4685Z" fill="#8A0304"/>
<path d="M23.0565 64.1578C23.0705 64.1904 23.0844 64.2182 23.0984 64.2508C23.5075 65.0923 24.084 65.8037 24.8047 66.3895V66.3523C24.8419 66.0455 24.8744 65.7386 24.9023 65.4271C25.888 54.1522 36.247 42.9238 47.4335 40.6735C47.5172 39.8924 47.5498 39.0973 47.5265 38.2883C36.9025 39.646 23.3215 48.8844 23.0565 64.1578V64.1578Z" fill="#8A0304"/>
</svg>
