<?xml version="1.0" encoding="UTF-8"?><svg id="b" xmlns="http://www.w3.org/2000/svg" xmlns:xlink="http://www.w3.org/1999/xlink" viewBox="0 0 676.56907 187.38279"><defs><style>.i{fill:#0f0f0f;}.j{fill:url(#h);}.k{clip-path:url(#g);}.l{fill:url(#f);}.m{fill:url(#e);}.n{fill:url(#d);}.o{fill:#89181a;}</style><linearGradient id="d" x1="99.00315" y1="109.92548" x2="99.00315" y2="196.38001" gradientTransform="matrix(1, 0, 0, 1, 0, 0)" gradientUnits="userSpaceOnUse"><stop offset=".27899" stop-color="#dcb32a"/><stop offset=".50044" stop-color="#fcf8cb"/><stop offset=".61343" stop-color="#c59e2d"/><stop offset=".83918" stop-color="#755321"/></linearGradient><linearGradient id="e" x1="77.00481" y1="155.31998" x2="155.59303" y2="155.31998" xlink:href="#d"/><linearGradient id="f" x1="61.99297" y1="140.42368" x2="172.17362" y2="140.42368" xlink:href="#d"/><clipPath id="g"><path class="i" d="M12.7212,83.98522l.79485,.67397c.10308,.08711,10.44696,8.76322,22.59363,10.97173l4.23255,.76953-3.46815,2.5455c-.26706,.19592-6.63639,4.80105-14.93844,4.80165h-.00181c-7.81013,0-14.5264-3.94983-19.96072-11.73856l-.92144-1.32113,11.66953-6.7027Z"/></clipPath><linearGradient id="h" x1="70.74327" y1="7.25082" x2="100.03299" y2="34.87365" xlink:href="#d"/></defs><g id="c"><g><g><g><path class="i" d="M110.28927,148.60765l-2.07559,2.04363c-9.35763,9.21355-15.17234,21.44703-16.37321,34.44673l-.21099,2.28478,2.27784-.2761c8.24719-.99921,14.07336-4.156,17.31665-9.38295,4.92402-7.93552,2.7369-18.71978,.03527-26.36955l-.96997-2.74655Z"/><g><path class="o" d="M126.7685,123.93311c1.18549-2.78503,2.07397-5.66443,2.6615-8.62976-29.05316,7.23944-55.3634,36.55908-57.9375,65.98877-.04529,.51776-.16693,1.74969-.27631,2.8324,1.74792,.9184,3.72223,1.64618,5.9137,2.18561,1.80756-32.75201,25.76294-56.86511,49.63861-62.37701Z"/><path class="o" d="M68.25483,178.42975c2.70575-30.93695,31.15009-61.7514,61.85138-67.87378,.14526-1.63232,.20392-3.28772,.17676-4.96442-29.13873,3.76141-66.45978,29.31085-66.46423,71.49457,1.04919,1.86627,2.41553,3.48077,4.08136,4.849,.034-.32709,.06567-.65039,.10114-.98132,.08893-.83167,.17914-1.67407,.2536-2.52405Z"/><path class="o" d="M130.21985,103.76123c-.04193-.79077-.0957-1.58441-.17542-2.38422l-.20557-2.06049-2.02466,.43311c-25.29138,5.41113-47.36627,21.58447-60.56458,44.37347l-.0636,.11603c-.37836,.71381-8.49915,16.28412-5.07147,28.65656,2.37921-40.82404,39.21155-65.46881,68.10529-69.13446Z"/><path class="o" d="M78.93873,186.70685c.05377,.01019,.10486,.02277,.15887,.03271l2.02374,.37341,.15851-2.05206c.54712-7.08704,2.22876-14.00012,4.99817-20.5473,1.65723-3.91846,3.70844-7.698,6.09686-11.23334,2.36438-3.49951,5.07959-6.79041,8.07056-9.78143,2.98981-2.99011,6.2807-5.70532,9.78143-8.07056,3.53479-2.38788,7.31396-4.43933,11.23309-6.09686,.86176-.36438,1.75964-.72101,2.66846-1.05975l.65863-.24567,.33002-.62067c.2417-.45483,.47278-.91321,.69763-1.3736-22.80432,5.94977-45.2785,29.25983-46.87598,60.67511Z"/><path class="n" d="M129.43,115.30335c.30896-1.5592,.53339-3.1424,.67621-4.74738-30.70129,6.12238-59.14563,36.93683-61.85138,67.87378-.07446,.84998-.16467,1.69238-.2536,2.52405-.03546,.33093-.06714,.65424-.10114,.98132,.99738,.81927,2.10114,1.55109,3.3161,2.18939,.10938-1.0827,.23102-2.31464,.27631-2.8324,2.5741-29.42969,28.88434-58.74933,57.9375-65.98877Z"/><path class="m" d="M125.8147,126.03174c.33838-.69293,.65356-1.39343,.9538-2.09863-23.87567,5.5119-47.83105,29.625-49.63861,62.37701,.5885,.14484,1.18872,.27948,1.80884,.39673,1.59747-31.41528,24.07166-54.72534,46.87598-60.67511Z"/><path class="l" d="M130.28296,105.59156c-.00983-.60736-.03064-1.21741-.06311-1.83032-28.89374,3.66565-65.72607,28.31042-68.10529,69.13446,.30518,1.10162,.69244,2.1806,1.19458,3.21875,.16028,.33142,.33124,.65448,.50958,.97168,.00446-42.18372,37.3255-67.73315,66.46423-71.49457Z"/></g><path class="i" d="M162.39266,83.98895l-.79485,.67397c-.10308,.08711-10.44696,8.76322-22.59363,10.97173l-4.23255,.76953,3.46815,2.5455c.26706,.19592,6.63639,4.80105,14.93844,4.80165h.00181c7.81013,0,14.5264-3.94983,19.96072-11.73856l.92144-1.32113-11.66953-6.7027Z"/><g><path class="i" d="M12.7212,83.98522l.79485,.67397c.10308,.08711,10.44696,8.76322,22.59363,10.97173l4.23255,.76953-3.46815,2.5455c-.26706,.19592-6.63639,4.80105-14.93844,4.80165h-.00181c-7.81013,0-14.5264-3.94983-19.96072-11.73856l-.92144-1.32113,11.66953-6.7027Z"/><g class="k"><path class="i" d="M25.44171,104.92516c-7.88914-2.19784-19.50713-6.46501-23.86169-18.19158-1.17758-3.17108-1.36088-4.32773-2.5988-5.6701"/><path class="i" d="M41.50701,98.31004c-5.95178-1.07227-16.09863-3.31032-22.91667-8.2689-2.5988-1.89003-4.25258-3.30756-6.32174-5.00983-2.61225-2.14906-2.65592-3.73158-3.49944-5.16312"/></g></g><path class="i" d="M19.13102,78.39728c7.45204,4.76397,16.97424,8.28246,28.30195,10.45841l.94315,.18116,.69146-.66645c7.19463-6.9348,15.15788-13.1278,23.66791-18.40689,1.42813-.88558,2.89244-1.75819,4.35312-2.59313l6.16588-3.52602-7.10239,.06631c-.8048,.00753-1.60085,.01145-2.38214,.01145-31.39213,.0003-44.08739-5.94523-52.24596-24.46818-3.2873-7.46289-2.28567-15.44453,2.97714-23.72306,4.04537-6.3633,9.2039-10.50665,9.25424-10.54673L40.28869,0l-8.11335,1.93181c-9.05802,2.15667-16.41179,6.06821-21.85667,11.62582C1.26879,22.79439-1.85031,35.92913,1.04846,52.59652c1.84892,10.63173,7.93281,19.31236,18.08257,25.80076Z"/><path class="i" d="M165.10515,13.55763c-5.44488-5.55761-12.79865-9.46915-21.85666-11.62582l-8.11336-1.93181,6.5333,5.18415c.20256,.16065,20.15755,16.27554,12.23137,34.26979-6.43172,14.60235-15.29381,20.92919-32.69788,23.34387-8.76051,1.21564-17.16986,3.5197-24.99416,6.8486-19.56315,8.32314-37.05644,21.55735-50.58845,38.27267l-.45182,.55823,.0425,.71678c.5947,10.0316,4.38658,19.17763,11.27014,27.18399l1.64998,1.91945,1.33017-2.15366c.73427-1.18881,1.49988-2.37399,2.27543-3.5221,3.68729-5.45754,7.92044-10.58833,12.58253-15.25012,4.66238-4.66299,9.79348-8.89615,15.25011-12.58223,5.50968-3.72255,11.40066-6.92033,17.50926-9.50381,5.88615-2.48944,12.04269-4.43602,18.29928-5.78578l2.06685-.44611-.03135-.08771c10.86383-2.02586,20.10661-5.28964,27.49927-9.71421,10.98229-6.57279,17.53097-15.54098,19.46368-26.65529,2.89877-16.66739-.22004-29.80213-9.27022-39.03889Z"/></g><polygon class="j" points="87.71193 10.62188 91.1535 17.59526 98.84908 18.71349 93.28051 24.14152 94.59507 31.806 87.71193 28.18732 80.82879 31.806 82.14335 24.14152 76.57478 18.71349 84.27036 17.59526 87.71193 10.62188"/></g><g><g><g><path class="i" d="M333.98265,151.09854v-10.24965c0-2.49065,.61107-4.35909,1.83278-5.60531,1.2217-1.24533,2.84098-1.86754,4.8574-1.86754,1.94554,0,3.53541,.5928,4.76915,1.77929,1.23329,1.1856,1.85016,2.97737,1.85016,5.37353v.32002h-2.59762v-.24871c0-1.6848-.36192-2.91854-1.08531-3.70121-.72384-.78267-1.6906-1.1749-2.90071-1.1749-1.37592,0-2.40775,.43323-3.09593,1.2997-.68818,.86558-1.03227,2.22412-1.03227,4.07472v10.03571c0,3.36871,1.37637,5.05351,4.12821,5.05351,1.23374,0,2.20673-.39223,2.91854-1.1749,.71136-.78267,1.06749-1.98076,1.06749-3.59424v-.32002h2.52676v.35568c0,2.37209-.60528,4.14604-1.81495,5.32005-1.21012,1.1749-2.77591,1.76146-4.69783,1.76146-2.01641,0-3.64149-.62222-4.87523-1.86844-1.23374-1.24533-1.85061-3.10128-1.85061-5.56876Z"/><path class="i" d="M355.512,151.98819l-1.5658,6.26318h-2.7046l6.69018-24.55531h2.38457l6.69018,24.55531h-2.74025l-1.5658-6.26318h-7.18848Zm3.59424-14.37786l-3.02506,12.13592h6.05013l-3.02506-12.13592Z"/><path class="i" d="M370.03071,151.52554h2.52676c.07131,1.66073,.44482,2.85257,1.12097,3.57641s1.6429,1.08576,2.90026,1.08576c1.28143,0,2.23615-.36192,2.86505-1.08576,.62846-.72384,.94269-1.83278,.94269-3.32771,0-1.30505-.27857-2.28919-.83616-2.9533s-1.56-1.29346-3.00724-1.88626l-1.42317-.56962c-1.61349-.64005-2.8236-1.45927-3.6299-2.45589-.80674-.99573-1.21012-2.33644-1.21012-4.02124,0-1.99234,.56338-3.58176,1.69015-4.76825,1.12721-1.18649,2.67518-1.77929,4.64435-1.77929,1.87423,0,3.35712,.5509,4.44823,1.65449,1.09155,1.10359,1.6848,2.75808,1.77974,4.96437h-2.45589c-.16581-2.8704-1.4352-4.3056-3.80774-4.3056-1.23374,0-2.15904,.35568-2.77591,1.06704-.61687,.71225-.9253,1.72046-.9253,3.02551,0,1.16242,.27902,2.07525,.83661,2.74025,.55759,.66411,1.51231,1.25692,2.86461,1.77929l1.45927,.56873c1.63711,.64094,2.8704,1.48334,3.70121,2.5272,.83037,1.04386,1.24533,2.50313,1.24533,4.37692,0,2.15904-.55759,3.82601-1.67277,5.00003-1.11473,1.1749-2.72822,1.76146-4.83957,1.76146-2.08817,0-3.6718-.5928-4.75087-1.77929-1.07952-1.1856-1.64335-2.91765-1.6906-5.19525Z"/><path class="i" d="M390.63476,151.98819l-1.5658,6.26318h-2.7046l6.69018-24.55531h2.38457l6.69018,24.55531h-2.74025l-1.5658-6.26318h-7.18848Zm3.59424-14.37786l-3.02506,12.13592h6.05013l-3.02506-12.13592Z"/><path class="i" d="M420.73966,133.69606c1.99279,0,3.59424,.61687,4.80436,1.85061,1.20967,1.23374,1.81495,3.09593,1.81495,5.58748v9.67914c0,2.46748-.60528,4.32432-1.81495,5.56965-1.21012,1.24533-2.81157,1.86844-4.80436,1.86844h-6.37015v-24.55531h6.37015Zm2.97158,20.96107c.69977-.85399,1.04966-2.12338,1.04966-3.80819v-9.46609c0-1.80336-.34409-3.14942-1.03183-4.03907-.68818-.88965-1.6848-1.33447-2.98941-1.33447h-3.77253v19.92879h3.77253c1.28098,0,2.27136-.42699,2.97158-1.28098Z"/><path class="i" d="M435.68491,144.58576h7.18893v2.34892h-7.18893v9.00343h8.36339v2.31326h-10.92536v-24.55531h10.92536v2.31326h-8.36339v8.57644Z"/><path class="i" d="M456.96422,151.09854v-10.24965c0-2.49065,.61152-4.35909,1.83278-5.60531,1.22126-1.24533,2.84098-1.86754,4.8574-1.86754,1.94599,0,3.53541,.5928,4.76915,1.77929,1.23285,1.1856,1.84972,2.97737,1.84972,5.37353v.32002h-2.59762v-.24871c0-1.6848-.36192-2.91854-1.08487-3.70121-.72384-.78267-1.69104-1.1749-2.90071-1.1749-1.37548,0-2.40775,.43323-3.09593,1.2997-.68818,.86558-1.03227,2.22412-1.03227,4.07472v10.03571c0,3.36871,1.37637,5.05351,4.12821,5.05351,1.23374,0,2.20629-.39223,2.91854-1.1749,.71136-.78267,1.06704-1.98076,1.06704-3.59424v-.32002h2.5272v.35568c0,2.37209-.60528,4.14604-1.81495,5.32005-1.20967,1.1749-2.77591,1.76146-4.69783,1.76146-2.01641,0-3.64149-.62222-4.87523-1.86844-1.23374-1.24533-1.85061-3.10128-1.85061-5.56876Z"/><path class="i" d="M478.49401,151.98819l-1.56624,6.26318h-2.7046l6.69018-24.55531h2.38457l6.69018,24.55531h-2.74025l-1.56535-6.26318h-7.18848Zm3.59424-14.37786l-3.02551,12.13592h6.05013l-3.02462-12.13592Z"/><path class="i" d="M496.82002,147.5043v10.74707h-2.59762v-24.55531h6.47712c2.15904,0,3.72974,.56962,4.71477,1.70798,.98503,1.13925,1.4771,2.88288,1.4771,5.2318,0,3.51134-1.21056,5.67038-3.6299,6.47623l4.34126,11.1393h-2.77591l-4.056-10.74707h-3.95081Zm3.84384-2.2776c1.25692,0,2.17687-.38599,2.75808-1.15708s.87182-1.91568,.87182-3.43379c0-1.54217-.27902-2.69925-.83616-3.47033-.55803-.77109-1.48869-1.15618-2.79374-1.15618h-3.84384v9.21738h3.84384Z"/><path class="i" d="M526.49837,158.25137h-2.59852l-8.39815-18.86175v18.86175h-2.59762v-24.55531h2.59762l8.39815,18.89652v-18.89652h2.59852v24.55531Z"/><path class="i" d="M535.10868,144.58576h7.18938v2.34892h-7.18938v9.00343h8.36339v2.31326h-10.92536v-24.55531h10.92536v2.31326h-8.36339v8.57644Z"/><path class="i" d="M547.45676,151.52554h2.5272c.07131,1.66073,.44482,2.85257,1.12053,3.57641,.67659,.72384,1.6438,1.08576,2.90071,1.08576,1.28188,0,2.2357-.36192,2.86505-1.08576,.62846-.72384,.94313-1.83278,.94313-3.32771,0-1.30505-.27902-2.28919-.83616-2.9533-.55803-.66411-1.56-1.29346-3.00768-1.88626l-1.42272-.56962c-1.61349-.64005-2.82405-1.45927-3.6299-2.45589-.80763-.99573-1.21056-2.33644-1.21056-4.02124,0-1.99234,.56338-3.58176,1.69015-4.76825,1.12677-1.18649,2.67518-1.77929,4.64435-1.77929,1.87378,0,3.35712,.5509,4.44823,1.65449s1.6848,2.75808,1.77929,4.96437h-2.455c-.16581-2.8704-1.4352-4.3056-3.80819-4.3056-1.23374,0-2.15904,.35568-2.77591,1.06704-.61687,.71225-.9253,1.72046-.9253,3.02551,0,1.16242,.27902,2.07525,.83616,2.74025,.55803,.66411,1.51276,1.25692,2.86505,1.77929l1.45927,.56873c1.63756,.64094,2.8704,1.48334,3.70121,2.5272,.82992,1.04386,1.24533,2.50313,1.24533,4.37692,0,2.15904-.55803,3.82601-1.67232,5.00003-1.11518,1.1749-2.72866,1.76146-4.84046,1.76146-2.08773,0-3.67091-.5928-4.75043-1.77929-1.07952-1.1856-1.6429-2.91765-1.69104-5.19525Z"/></g><rect class="i" x="569.45901" y="145.30069" width="41.91411" height="1.9968"/><rect class="i" x="280.05074" y="146.29909" width="41.91411" height="1.9968"/></g><g><path class="i" d="M214.85479,99.49906c3.13694,0,6.12412-.14976,6.12412-4.03283V46.62215c0-3.88396-2.98718-4.03283-6.12412-4.03283v-12.24913h28.52974c10.75465,0,19.418,8.81356,19.418,19.41889v16.42993c0,6.87114-2.98718,12.24913-7.46839,15.53494l4.92916,14.48929c1.49359,3.43468,6.27343,3.28581,9.26106,3.28581v12.24824h-24.49692v-12.24824c2.24061,0,3.28625-.29863,2.38992-3.13694l-3.7342-10.7542h-10.45602v9.85831c0,3.88307,2.98762,4.03283,6.12456,4.03283v12.24824h-24.49692v-12.24824Zm28.52974-26.28914c3.88351,0,7.16976-3.13694,7.16976-7.0209v-16.42993c0-3.88396-3.28625-7.0209-7.16976-7.0209h-9.41037v30.47172h9.41037Z"/><path class="i" d="M291.94236,112.94181c-11.05328,0-20.0157-8.96154-20.0157-20.01526V49.01208c0-11.20259,8.96243-20.16502,20.0157-20.16502h.74702c11.05328,0,20.16457,8.96243,20.16457,20.16502v43.91447c0,11.05372-9.1113,20.01526-20.16457,20.01526h-.74702Zm0-71.84652c-4.18259,0-7.76747,3.58444-7.76747,7.91678v43.91447c0,4.33145,3.58488,7.76702,7.76747,7.76702h.74702c4.33145,0,7.76702-3.43557,7.76702-7.76702V49.01208c0-4.33235-3.43557-7.91678-7.76702-7.91678h-.74702Z"/><path class="i" d="M327.19348,99.49906c3.13694,0,6.12412-.14976,6.12412-4.03283V42.58933h-2.98718c-3.88351,0-4.03327,2.98718-4.03327,6.12412h-12.24824V30.3402h51.08468v18.37325h-12.24824c0-3.13694-.14931-6.12412-4.03327-6.12412h-3.13649v52.8769c0,3.88307,2.98718,4.03283,6.12412,4.03283v12.24824h-24.64623v-12.24824Z"/><path class="i" d="M354.67757,99.49906c2.98762,0,7.61815-.14976,8.51404-3.58533l10.45602-49.29157c.74702-3.43557-1.04565-4.03283-4.18214-4.03283v-12.24913h27.93204v12.24913c-3.13694,0-4.92916,.59726-4.18259,4.03283l10.3067,49.59109c1.04565,3.13605,5.52686,3.28581,8.51404,3.28581v12.24824h-26.58777v-12.24824c2.53924,0,6.27343-.14976,5.3771-4.03283l-.29863-1.6438-13.14457-5.3771-1.49359,7.0209c-.89633,3.88307,2.83786,4.03283,5.3771,4.03283v12.24824h-26.58777v-12.24824Zm32.86164-20.01615l-4.18259-19.418-3.43557,16.28195,7.61815,3.13605Z"/><path class="i" d="M440.56499,111.74729v-12.24824c3.13694,0,6.12412-.14976,6.12412-4.03283V46.62215c0-3.88396-2.98718-4.03283-6.12412-4.03283v-12.24913h28.82882c10.60444,0,19.26824,8.51493,19.26824,19.11937v43.01859c0,10.60533-8.6638,19.26913-19.26824,19.26913h-28.82882Zm18.37235-12.24824h10.45646c3.88307,0,6.87114-3.13694,6.87114-7.0209V49.45957c0-3.7342-2.98807-6.87024-6.87114-6.87024h-10.45646v56.90973Z"/><path class="i" d="M511.21788,112.94181c-11.05372,0-20.01615-8.96154-20.01615-20.01526V49.01208c0-11.20259,8.96243-20.16502,20.01615-20.16502h.74702c11.05372,0,20.16413,8.96243,20.16413,20.16502v43.91447c0,11.05372-9.11041,20.01526-20.16413,20.01526h-.74702Zm0-71.84652c-4.18259,0-7.76791,3.58444-7.76791,7.91678v43.91447c0,4.33145,3.58533,7.76702,7.76791,7.76702h.74702c4.33145,0,7.76702-3.43557,7.76702-7.76702V49.01208c0-4.33235-3.43557-7.91678-7.76702-7.91678h-.74702Z"/><path class="i" d="M602.18288,63.05298c3.2867,3.43557,5.22823,8.06565,5.22823,13.14412v16.43082c0,10.60533-8.6638,19.11937-19.26824,19.11937h-27.48454v-12.24824c3.13694,0,6.12412-.14976,6.12412-4.03283V46.62215c0-3.88396-2.98718-4.03283-6.12412-4.03283v-12.24913h27.48454c10.60444,0,19.26824,8.96243,19.26824,19.56776,0,5.07847-1.94153,9.70945-5.22823,13.14501Zm-23.1522-20.46365v14.33953h9.11219c3.73331,0,6.87114-3.13694,6.87114-7.0209s-3.13783-7.31863-6.87114-7.31863h-9.11219Zm15.98332,33.60777c0-3.88307-3.13783-7.02-6.87114-7.02h-9.11219v30.47083h9.11219c3.73331,0,6.87114-3.13605,6.87114-7.02v-16.43082Z"/><path class="i" d="M629.96694,112.94181c-11.05372,0-20.01615-8.96154-20.01615-20.01526V49.01208c0-11.20259,8.96243-20.16502,20.01615-20.16502h.74613c11.05372,0,20.16502,8.96243,20.16502,20.16502v43.91447c0,11.05372-9.1113,20.01526-20.16502,20.01526h-.74613Zm0-71.84652c-4.18259,0-7.76791,3.58444-7.76791,7.91678v43.91447c0,4.33145,3.58533,7.76702,7.76791,7.76702h.74613c4.33145,0,7.76702-3.43557,7.76702-7.76702V49.01208c0-4.33235-3.43557-7.91678-7.76702-7.91678h-.74613Z"/><path class="i" d="M652.0726,99.49906c3.13694,0,6.12412-.14976,6.12412-4.03283V46.62215c0-3.88396-2.98718-4.03283-6.12412-4.03283v-12.24913h24.49647v12.24913c-3.13605,0-6.12412,.14887-6.12412,4.03283v48.84408c0,3.88307,2.98807,4.03283,6.12412,4.03283v12.24824h-24.49647v-12.24824Z"/></g></g></g></g></svg>