<?xml version="1.0" encoding="UTF-8"?><svg id="b" xmlns="http://www.w3.org/2000/svg" xmlns:xlink="http://www.w3.org/1999/xlink" viewBox="0 0 175.42386 187.38279"><defs><style>.i{fill:#0f0f0f;}.j{fill:url(#h);}.k{clip-path:url(#g);}.l{fill:url(#f);}.m{fill:url(#e);}.n{fill:url(#d);}.o{fill:#89181a;}</style><linearGradient id="d" x1="99.00315" y1="109.92548" x2="99.00315" y2="196.38001" gradientTransform="matrix(1, 0, 0, 1, 0, 0)" gradientUnits="userSpaceOnUse"><stop offset=".27899" stop-color="#dcb32a"/><stop offset=".50044" stop-color="#fcf8cb"/><stop offset=".61343" stop-color="#c59e2d"/><stop offset=".83918" stop-color="#755321"/></linearGradient><linearGradient id="e" x1="77.00481" y1="155.31998" x2="155.59303" y2="155.31998" xlink:href="#d"/><linearGradient id="f" x1="61.99297" y1="140.42368" x2="172.17362" y2="140.42368" xlink:href="#d"/><clipPath id="g"><path class="i" d="M12.7212,83.98522l.79485,.67397c.10308,.08711,10.44696,8.76322,22.59363,10.97173l4.23255,.76953-3.46815,2.5455c-.26706,.19592-6.63639,4.80105-14.93844,4.80165h-.00181c-7.81013,0-14.5264-3.94983-19.96072-11.73856l-.92144-1.32113,11.66953-6.7027Z"/></clipPath><linearGradient id="h" x1="70.74327" y1="7.25082" x2="100.03299" y2="34.87365" xlink:href="#d"/></defs><g id="c"><g><g><path class="i" d="M110.28927,148.60765l-2.07559,2.04363c-9.35763,9.21355-15.17234,21.44703-16.37321,34.44673l-.21099,2.28478,2.27784-.2761c8.24719-.99921,14.07336-4.156,17.31665-9.38295,4.92402-7.93552,2.7369-18.71978,.03527-26.36955l-.96997-2.74655Z"/><g><path class="o" d="M126.7685,123.93311c1.18549-2.78503,2.07397-5.66443,2.6615-8.62976-29.05316,7.23944-55.3634,36.55908-57.9375,65.98877-.04529,.51776-.16693,1.74969-.27631,2.8324,1.74792,.9184,3.72223,1.64618,5.9137,2.18561,1.80756-32.75201,25.76294-56.86511,49.63861-62.37701Z"/><path class="o" d="M68.25483,178.42975c2.70575-30.93695,31.15009-61.7514,61.85138-67.87378,.14526-1.63232,.20392-3.28772,.17676-4.96442-29.13873,3.76141-66.45978,29.31085-66.46423,71.49457,1.04919,1.86627,2.41553,3.48077,4.08136,4.849,.034-.32709,.06567-.65039,.10114-.98132,.08893-.83167,.17914-1.67407,.2536-2.52405Z"/><path class="o" d="M130.21985,103.76123c-.04193-.79077-.0957-1.58441-.17542-2.38422l-.20557-2.06049-2.02466,.43311c-25.29138,5.41113-47.36627,21.58447-60.56458,44.37347l-.0636,.11603c-.37836,.71381-8.49915,16.28412-5.07147,28.65656,2.37921-40.82404,39.21155-65.46881,68.10529-69.13446Z"/><path class="o" d="M78.93873,186.70685c.05377,.01019,.10486,.02277,.15887,.03271l2.02374,.37341,.15851-2.05206c.54712-7.08704,2.22876-14.00012,4.99817-20.5473,1.65723-3.91846,3.70844-7.698,6.09686-11.23334,2.36438-3.49951,5.07959-6.79041,8.07056-9.78143,2.98981-2.99011,6.2807-5.70532,9.78143-8.07056,3.53479-2.38788,7.31396-4.43933,11.23309-6.09686,.86176-.36438,1.75964-.72101,2.66846-1.05975l.65863-.24567,.33002-.62067c.2417-.45483,.47278-.91321,.69763-1.3736-22.80432,5.94977-45.2785,29.25983-46.87598,60.67511Z"/><path class="n" d="M129.43,115.30335c.30896-1.5592,.53339-3.1424,.67621-4.74738-30.70129,6.12238-59.14563,36.93683-61.85138,67.87378-.07446,.84998-.16467,1.69238-.2536,2.52405-.03546,.33093-.06714,.65424-.10114,.98132,.99738,.81927,2.10114,1.55109,3.3161,2.18939,.10938-1.0827,.23102-2.31464,.27631-2.8324,2.5741-29.42969,28.88434-58.74933,57.9375-65.98877Z"/><path class="m" d="M125.8147,126.03174c.33838-.69293,.65356-1.39343,.9538-2.09863-23.87567,5.5119-47.83105,29.625-49.63861,62.37701,.5885,.14484,1.18872,.27948,1.80884,.39673,1.59747-31.41528,24.07166-54.72534,46.87598-60.67511Z"/><path class="l" d="M130.28296,105.59156c-.00983-.60736-.03064-1.21741-.06311-1.83032-28.89374,3.66565-65.72607,28.31042-68.10529,69.13446,.30518,1.10162,.69244,2.1806,1.19458,3.21875,.16028,.33142,.33124,.65448,.50958,.97168,.00446-42.18372,37.3255-67.73315,66.46423-71.49457Z"/></g><path class="i" d="M162.39266,83.98895l-.79485,.67397c-.10308,.08711-10.44696,8.76322-22.59363,10.97173l-4.23255,.76953,3.46815,2.5455c.26706,.19592,6.63639,4.80105,14.93844,4.80165h.00181c7.81013,0,14.5264-3.94983,19.96072-11.73856l.92144-1.32113-11.66953-6.7027Z"/><g><path class="i" d="M12.7212,83.98522l.79485,.67397c.10308,.08711,10.44696,8.76322,22.59363,10.97173l4.23255,.76953-3.46815,2.5455c-.26706,.19592-6.63639,4.80105-14.93844,4.80165h-.00181c-7.81013,0-14.5264-3.94983-19.96072-11.73856l-.92144-1.32113,11.66953-6.7027Z"/><g class="k"><path class="i" d="M25.44171,104.92516c-7.88914-2.19784-19.50713-6.46501-23.86169-18.19158-1.17758-3.17108-1.36088-4.32773-2.5988-5.6701"/><path class="i" d="M41.50701,98.31004c-5.95178-1.07227-16.09863-3.31032-22.91667-8.2689-2.5988-1.89003-4.25258-3.30756-6.32174-5.00983-2.61225-2.14906-2.65592-3.73158-3.49944-5.16312"/></g></g><path class="i" d="M19.13102,78.39728c7.45204,4.76397,16.97424,8.28246,28.30195,10.45841l.94315,.18116,.69146-.66645c7.19463-6.9348,15.15788-13.1278,23.66791-18.40689,1.42813-.88558,2.89244-1.75819,4.35312-2.59313l6.16588-3.52602-7.10239,.06631c-.8048,.00753-1.60085,.01145-2.38214,.01145-31.39213,.0003-44.08739-5.94523-52.24596-24.46818-3.2873-7.46289-2.28567-15.44453,2.97714-23.72306,4.04537-6.3633,9.2039-10.50665,9.25424-10.54673L40.28869,0l-8.11335,1.93181c-9.05802,2.15667-16.41179,6.06821-21.85667,11.62582C1.26879,22.79439-1.85031,35.92913,1.04846,52.59652c1.84892,10.63173,7.93281,19.31236,18.08257,25.80076Z"/><path class="i" d="M165.10515,13.55763c-5.44488-5.55761-12.79865-9.46915-21.85666-11.62582l-8.11336-1.93181,6.5333,5.18415c.20256,.16065,20.15755,16.27554,12.23137,34.26979-6.43172,14.60235-15.29381,20.92919-32.69788,23.34387-8.76051,1.21564-17.16986,3.5197-24.99416,6.8486-19.56315,8.32314-37.05644,21.55735-50.58845,38.27267l-.45182,.55823,.0425,.71678c.5947,10.0316,4.38658,19.17763,11.27014,27.18399l1.64998,1.91945,1.33017-2.15366c.73427-1.18881,1.49988-2.37399,2.27543-3.5221,3.68729-5.45754,7.92044-10.58833,12.58253-15.25012,4.66238-4.66299,9.79348-8.89615,15.25011-12.58223,5.50968-3.72255,11.40066-6.92033,17.50926-9.50381,5.88615-2.48944,12.04269-4.43602,18.29928-5.78578l2.06685-.44611-.03135-.08771c10.86383-2.02586,20.10661-5.28964,27.49927-9.71421,10.98229-6.57279,17.53097-15.54098,19.46368-26.65529,2.89877-16.66739-.22004-29.80213-9.27022-39.03889Z"/></g><polygon class="j" points="87.71193 10.62188 91.1535 17.59526 98.84908 18.71349 93.28051 24.14152 94.59507 31.806 87.71193 28.18732 80.82879 31.806 82.14335 24.14152 76.57478 18.71349 84.27036 17.59526 87.71193 10.62188"/></g></g></svg>