<svg width="36" height="36" viewBox="0 0 36 36" fill="none" xmlns="http://www.w3.org/2000/svg">
<path fill-rule="evenodd" clip-rule="evenodd" d="M30.8044 8.52841C26.0089 5.30188 19.7786 5.14535 14.8271 8.12699C11.8474 9.84612 8.56915 10.9854 5.16553 11.4847L4.95116 11.5204C3.82163 11.7086 2.99363 12.6859 2.99363 13.831V13.831C2.9876 14.4824 3.25514 15.1066 3.73119 15.5513C11.4332 22.5455 23.0693 22.9265 31.2123 16.4512C32.3575 15.5188 33.0174 14.1169 33.0064 12.6402V12.6402C33.0007 10.989 32.1757 9.44825 30.8044 8.52841Z" stroke="#F10505" stroke-width="1.5" stroke-linecap="round" stroke-linejoin="round"/>
<path d="M23.4022 11.8466L21.6015 16.3485" stroke="#F10505" stroke-width="1.5" stroke-linecap="round" stroke-linejoin="round"/>
<path d="M17.3997 11.8466L15.599 16.3485" stroke="#F10505" stroke-width="1.5" stroke-linecap="round" stroke-linejoin="round"/>
<path d="M2.99374 13.831V21.0451C3.00291 22.9894 3.94109 24.8122 5.51807 25.9496C12.961 31.3568 23.039 31.3568 30.4819 25.9496C32.0589 24.8122 32.9971 22.9894 33.0062 21.0451V12.6402" stroke="#F10505" stroke-width="1.5" stroke-linecap="round" stroke-linejoin="round"/>
</svg>
