<svg width="21" height="21" viewBox="0 0 21 21" fill="none" xmlns="http://www.w3.org/2000/svg">
<path fill-rule="evenodd" clip-rule="evenodd" d="M17.9405 3.05156C16.9697 2.08034 15.8165 1.31072 14.5471 0.787007C13.2777 0.263291 11.9172 -0.0041776 10.5441 -1.43187e-06C4.78125 -1.43187e-06 0.0899999 4.66781 0.0876562 10.4062C0.0851069 12.2335 0.566763 14.0288 1.48359 15.6094L0 21L5.54297 19.553C7.07729 20.3842 8.79484 20.8192 10.5398 20.8186H10.5441C16.3064 20.8186 20.9972 16.1503 21 10.4123C21.0035 9.04385 20.7348 7.68833 20.2095 6.42466C19.6843 5.16098 18.913 4.01437 17.9405 3.05156V3.05156ZM10.5441 19.0622H10.5403C8.98471 19.0626 7.45739 18.6463 6.11719 17.8566L5.79984 17.6691L2.51062 18.5278L3.38859 15.3361L3.18187 15.008C2.31206 13.6309 1.85121 12.0351 1.85297 10.4062C1.85297 5.63765 5.75344 1.75781 10.5473 1.75781C12.847 1.7537 15.0542 2.66322 16.6833 4.2863C18.3125 5.90939 19.2302 8.11313 19.2347 10.4128C19.2328 15.1819 15.3342 19.0622 10.5441 19.0622V19.0622ZM15.3108 12.5845C15.0497 12.4542 13.7639 11.8252 13.5258 11.7384C13.2877 11.6517 13.1119 11.6081 12.938 11.8687C12.7641 12.1294 12.263 12.7125 12.1106 12.8883C11.9583 13.0641 11.8059 13.0833 11.5448 12.953C11.2838 12.8227 10.4414 12.5484 9.44344 11.6625C8.66672 10.973 8.14266 10.1217 7.99031 9.86156C7.83797 9.6014 7.97391 9.46031 8.10469 9.33093C8.22234 9.21422 8.36578 9.02718 8.49656 8.87531C8.62734 8.72343 8.67094 8.61469 8.75766 8.44125C8.84438 8.26781 8.80125 8.11593 8.73609 7.98609C8.67094 7.85625 8.14828 6.57609 7.93078 6.05531C7.71844 5.54812 7.50328 5.61703 7.34297 5.60906C7.19062 5.60156 7.01484 5.59969 6.84188 5.59969C6.70965 5.60313 6.57955 5.63379 6.4597 5.68976C6.33985 5.74574 6.23283 5.82581 6.14531 5.925C5.90578 6.18562 5.23078 6.81562 5.23078 8.09437C5.23078 9.37312 6.16828 10.6106 6.29766 10.7841C6.42703 10.9575 8.13984 13.5839 10.7606 14.7103C11.2473 14.9187 11.7445 15.1015 12.2503 15.2578C12.8761 15.4556 13.4456 15.428 13.8956 15.3609C14.3977 15.2864 15.4425 14.7319 15.6595 14.1244C15.8766 13.5169 15.877 12.9966 15.8119 12.8883C15.7467 12.78 15.5723 12.7144 15.3108 12.5845V12.5845Z" fill="#F10505"/>
</svg>
