<svg width="176" height="188" viewBox="0 0 176 188" fill="none" xmlns="http://www.w3.org/2000/svg">
<path d="M110.289 148.608L108.214 150.651C98.856 159.865 93.0413 172.098 91.8404 185.098L91.6294 187.383L93.9072 187.107C102.154 186.108 107.981 182.951 111.224 177.724C116.148 169.788 113.961 159.004 111.259 151.354L110.289 148.608V148.608Z" fill="#0F0F0F"/>
<path d="M126.768 123.933C127.954 121.148 128.842 118.269 129.43 115.303C100.377 122.543 74.0665 151.862 71.4924 181.292C71.4471 181.81 71.3254 183.042 71.2161 184.124C72.964 185.043 74.9383 185.771 77.1298 186.31C78.9373 153.558 102.893 129.445 126.768 123.933V123.933Z" fill="#89181A"/>
<path d="M68.2547 178.43C70.9604 147.493 99.4048 116.678 130.106 110.556C130.251 108.924 130.31 107.268 130.283 105.592C101.144 109.353 63.8231 134.902 63.8186 177.086C64.8678 178.952 66.2341 180.567 67.9 181.935C67.934 181.608 67.9656 181.285 68.0011 180.954C68.09 180.122 68.1802 179.28 68.2547 178.43H68.2547Z" fill="#89181A"/>
<path d="M130.22 103.761C130.178 102.97 130.124 102.177 130.044 101.377L129.839 99.3164L127.814 99.7495C102.523 105.161 80.4478 121.334 67.2495 144.123L67.1859 144.239C66.8075 144.953 58.6867 160.523 62.1144 172.896C64.4936 132.072 101.326 107.427 130.22 103.761H130.22Z" fill="#89181A"/>
<path d="M78.9385 186.707C78.9923 186.717 79.0433 186.73 79.0974 186.74L81.1211 187.113L81.2796 185.061C81.8267 177.974 83.5084 171.061 86.2778 164.514C87.935 160.595 89.9862 156.816 92.3746 153.28C94.739 149.781 97.4542 146.49 100.445 143.499C103.435 140.509 106.726 137.794 110.227 135.428C113.761 133.04 117.541 130.989 121.46 129.331C122.321 128.967 123.219 128.61 124.128 128.272L124.787 128.026L125.117 127.405C125.359 126.951 125.59 126.492 125.814 126.032C103.01 131.982 80.536 155.292 78.9385 186.707L78.9385 186.707Z" fill="#89181A"/>
<path d="M129.43 115.303C129.739 113.744 129.963 112.161 130.106 110.556C99.4047 116.678 70.9604 147.493 68.2546 178.43C68.1802 179.28 68.09 180.122 68.001 180.954C67.9656 181.285 67.9339 181.608 67.8999 181.935C68.8973 182.754 70.001 183.486 71.216 184.124C71.3254 183.042 71.447 181.81 71.4923 181.292C74.0664 151.862 100.377 122.543 129.43 115.303V115.303Z" fill="url(#paint0_linear_313_18)"/>
<path d="M125.814 126.032C126.153 125.339 126.468 124.638 126.768 123.933C102.893 129.445 78.9372 153.558 77.1296 186.31C77.7181 186.455 78.3184 186.59 78.9385 186.707C80.5359 155.292 103.01 131.982 125.814 126.032H125.814Z" fill="url(#paint1_linear_313_18)"/>
<path d="M130.283 105.592C130.273 104.984 130.252 104.374 130.22 103.761C101.326 107.427 64.4937 132.072 62.1145 172.896C62.4197 173.997 62.8069 175.076 63.3091 176.114C63.4694 176.446 63.6403 176.769 63.8187 177.086C63.8231 134.902 101.144 109.353 130.283 105.592H130.283Z" fill="url(#paint2_linear_313_18)"/>
<path d="M162.393 83.989L161.598 84.663C161.495 84.7501 151.151 93.4262 139.004 95.6347L134.772 96.4043L138.24 98.9498C138.507 99.1457 144.876 103.751 153.178 103.751H153.18C160.99 103.751 167.707 99.8016 173.141 92.0128L174.062 90.6917L162.393 83.989V83.989Z" fill="#0F0F0F"/>
<path d="M12.7213 83.9851L13.5161 84.6591C13.6192 84.7462 23.9631 93.4223 36.1098 95.6308L40.3423 96.4004L36.8742 98.9459C36.6071 99.1418 30.2378 103.747 21.9357 103.747H21.9339C14.1238 103.747 7.40752 99.7977 1.9732 92.0089L1.05176 90.6878L12.7213 83.9851V83.9851Z" fill="#0F0F0F"/>
<path d="M25.4417 104.925C17.5526 102.727 5.93456 98.4602 1.58 86.7336C0.402421 83.5625 0.219121 82.4058 -1.0188 81.0635" fill="#0F0F0F"/>
<path d="M41.5069 98.31C35.5551 97.2378 25.4083 94.9997 18.5902 90.0411C15.9914 88.1511 14.3376 86.7336 12.2685 85.0313C9.65623 82.8822 9.61256 81.2997 8.76904 79.8682" fill="#0F0F0F"/>
<path d="M19.131 78.3973C26.5831 83.1612 36.1053 86.6797 47.433 88.8557L48.3761 89.0368L49.0676 88.3704C56.2622 81.4356 64.2255 75.2426 72.7355 69.9635C74.1636 69.0779 75.6279 68.2053 77.0886 67.3704L83.2545 63.8444L76.1521 63.9107C75.3473 63.9182 74.5512 63.9221 73.77 63.9221C42.3778 63.9224 29.6826 57.9769 21.524 39.4539C18.2367 31.9911 19.2383 24.0094 24.5011 15.7309C28.5465 9.36758 33.705 5.22423 33.7554 5.18415L40.2887 0L32.1753 1.93181C23.1173 4.08848 15.7635 8.00002 10.3187 13.5576C1.26879 22.7944 -1.85031 35.9291 1.04846 52.5965C2.89738 63.2282 8.98127 71.9089 19.131 78.3973H19.131Z" fill="#0F0F0F"/>
<path d="M165.105 13.5576C159.66 8.00002 152.306 4.08848 143.248 1.93181L135.135 0L141.668 5.18415C141.871 5.3448 161.826 21.4597 153.9 39.4539C147.468 54.0563 138.606 60.3831 121.202 62.7978C112.441 64.0134 104.032 66.3175 96.2078 69.6464C76.6446 77.9695 59.1513 91.2038 45.6193 107.919L45.1675 108.477L45.21 109.194C45.8047 119.226 49.5966 128.372 56.4801 136.378L58.1301 138.298L59.4603 136.144C60.1945 134.955 60.9602 133.77 61.7357 132.622C65.423 127.164 69.6561 122.033 74.3182 117.372C78.9806 112.709 84.1117 108.476 89.5683 104.789C95.078 101.067 100.969 97.8691 107.078 95.2856C112.964 92.7962 119.12 90.8496 125.377 89.4998L127.444 89.0537L127.412 88.966C138.276 86.9402 147.519 83.6764 154.912 79.2518C165.894 72.679 172.443 63.7108 174.375 52.5965C177.274 35.9291 174.155 22.7944 165.105 13.5576L165.105 13.5576Z" fill="#0F0F0F"/>
<path d="M87.7119 10.6218L91.1534 17.5952L98.849 18.7134L93.2804 24.1415L94.595 31.8059L87.7119 28.1873L80.8287 31.8059L82.1433 24.1415L76.5747 18.7134L84.2703 17.5952L87.7119 10.6218Z" fill="url(#paint3_linear_313_18)"/>
<defs>
<linearGradient id="paint0_linear_313_18" x1="99.003" y1="109.925" x2="99.003" y2="196.38" gradientUnits="userSpaceOnUse">
<stop offset="0.27899" stop-color="#DCB32A"/>
<stop offset="0.50044" stop-color="#FCF8CB"/>
<stop offset="0.61343" stop-color="#C59E2D"/>
<stop offset="0.83918" stop-color="#755321"/>
</linearGradient>
<linearGradient id="paint1_linear_313_18" x1="77.0046" y1="155.32" x2="155.593" y2="155.32" gradientUnits="userSpaceOnUse">
<stop offset="0.27899" stop-color="#DCB32A"/>
<stop offset="0.50044" stop-color="#FCF8CB"/>
<stop offset="0.61343" stop-color="#C59E2D"/>
<stop offset="0.83918" stop-color="#755321"/>
</linearGradient>
<linearGradient id="paint2_linear_313_18" x1="61.9929" y1="140.424" x2="172.174" y2="140.424" gradientUnits="userSpaceOnUse">
<stop offset="0.27899" stop-color="#DCB32A"/>
<stop offset="0.50044" stop-color="#FCF8CB"/>
<stop offset="0.61343" stop-color="#C59E2D"/>
<stop offset="0.83918" stop-color="#755321"/>
</linearGradient>
<linearGradient id="paint3_linear_313_18" x1="70.7432" y1="7.25077" x2="100.033" y2="34.8736" gradientUnits="userSpaceOnUse">
<stop offset="0.27899" stop-color="#DCB32A"/>
<stop offset="0.50044" stop-color="#FCF8CB"/>
<stop offset="0.61343" stop-color="#C59E2D"/>
<stop offset="0.83918" stop-color="#755321"/>
</linearGradient>
</defs>
</svg>
