<svg width="17" height="18" viewBox="0 0 17 18" fill="none" xmlns="http://www.w3.org/2000/svg">
<path d="M12.4458 10.3911C12.0517 10.4632 11.6821 10.6224 11.3101 10.7828C9.11326 11.7244 7.36389 14.0247 7.0361 16.368C7.02564 16.4448 6.96752 16.6993 6.95822 16.7749C6.95473 16.8074 6.85942 16.7249 6.85942 16.7249C6.85942 16.7249 6.7827 16.6749 6.78619 16.6493C6.79432 16.5738 6.81176 16.4355 6.81873 16.3587C6.95473 14.9162 7.70795 13.4249 8.89124 12.2312C10.028 11.0851 11.1091 10.4306 12.4644 10.2551" fill="#F19E04"/>
<path d="M10.6662 13.6403L10.4767 13.8263C9.62355 14.6667 9.0935 15.7826 8.98308 16.9682L8.96332 17.1763L9.17138 17.1507C9.92344 17.06 10.4546 16.7718 10.751 16.2952C11.1997 15.571 11.001 14.5877 10.7545 13.8902L10.6662 13.6392V13.6403Z" fill="#0D0D0D"/>
<path d="M15.418 7.74683L15.3459 7.80843C15.3366 7.81657 14.3928 8.60814 13.285 8.80924L12.8991 8.87898L13.2153 9.11145C13.2397 9.12889 13.8209 9.54967 14.5776 9.54967C15.2901 9.54967 15.9027 9.18933 16.3979 8.47912L16.4815 8.35823L15.4168 7.74683H15.418Z" fill="#0D0D0D"/>
<path d="M1.76718 7.74683L1.83925 7.80843C1.84855 7.81657 2.7924 8.60814 3.90014 8.80924L4.28605 8.87898L3.96988 9.11145C3.94547 9.12889 3.36429 9.54967 2.60758 9.54967C1.89505 9.54967 1.28248 9.18933 0.787304 8.47912L0.703613 8.35823L1.76835 7.74683H1.76718Z" fill="#0D0D0D"/>
<path d="M2.35195 7.23667C3.03194 7.6714 3.90023 7.99222 4.93358 8.19098L5.0196 8.20725L5.08236 8.14681C5.73911 7.51448 6.46443 6.94957 7.24089 6.46834C7.37108 6.38814 7.50475 6.30794 7.63842 6.23238L8.20101 5.9104L7.55357 5.91622C7.48034 5.91622 7.40711 5.91622 7.33621 5.91622C4.47328 5.91622 3.31556 5.37455 2.57164 3.68446C2.27175 3.00331 2.36357 2.27566 2.84363 1.52128C3.21211 0.941259 3.68287 0.563487 3.68752 0.558838L4.28149 0.0869141L3.54106 0.263595C2.71461 0.460036 2.04392 0.816885 1.54759 1.32368C0.723465 2.1664 0.438683 3.36364 0.702542 4.88403C0.871086 5.85345 1.42554 6.64502 2.35195 7.23667V7.23667Z" fill="#0D0D0D"/>
<path d="M15.6655 1.32368C15.1692 0.816885 14.4985 0.460036 13.6721 0.263595L12.9316 0.0869141L13.5279 0.56C13.5465 0.575111 15.3668 2.04435 14.6438 3.68562C14.0568 5.0177 13.249 5.59424 11.6612 5.81509C10.8626 5.92551 10.0954 6.1359 9.38174 6.43928C7.5975 7.19831 6.00156 8.40486 4.76828 9.92989L4.7276 9.98104L4.73109 10.0461C4.78572 10.9609 5.13094 11.7955 5.75863 12.5255L5.90857 12.701L6.02946 12.5045C6.09688 12.3964 6.16662 12.2883 6.23752 12.1837C6.57345 11.6862 6.95936 11.2178 7.38479 10.7924C7.81021 10.3669 8.27749 9.98104 8.77615 9.64511C9.27829 9.3057 9.81647 9.01394 10.3732 8.77798C10.9103 8.55132 11.4717 8.37347 12.0424 8.25026L12.2307 8.20958L12.2284 8.20144C13.2187 8.01662 14.0626 7.71906 14.7368 7.31571C15.7388 6.71593 16.3362 5.89878 16.5117 4.88519C16.7756 3.36481 16.492 2.16756 15.6667 1.32484L15.6655 1.32368Z" fill="#0D0D0D"/>
<path d="M8.60649 1.05518L8.92033 1.69216L9.6224 1.79328L9.11445 2.28845L9.23417 2.9882L8.60649 2.65809L7.97881 2.9882L8.09853 2.28845L7.59058 1.79328L8.29265 1.69216L8.60649 1.05518Z" fill="#F19E04"/>
<path d="M7.70105 17.0901C7.72546 15.6615 8.29154 14.4701 9.11566 13.2949C9.94675 12.1082 12.096 11.3491 12.139 11.4572L12.0297 11.6839C12.0297 11.6839 10.8639 12.1117 9.80146 13.1055C9.03429 13.8227 8.36709 14.9106 8.01257 15.9824C7.89168 16.3473 7.75452 16.7042 7.74754 17.1006L7.70105 17.0901V17.0901Z" fill="white"/>
<path d="M6.327 16.0218L6.38628 16.159C6.6699 15.7405 6.68269 14.7932 6.87099 14.1144C7.16159 13.0694 7.8625 12.1651 8.82727 11.363C10.1686 10.2471 12.4899 9.73686 12.4899 9.73686L12.4841 9.58691C8.24492 10.3239 7.10579 12.8939 7.10579 12.8939C7.10579 12.8939 6.26888 12.9973 6.32584 16.0218H6.327Z" fill="white"/>
<path d="M8.51237 11.4703C9.63523 10.4625 11.0952 9.78481 12.4854 9.61162C12.4819 9.51979 12.4761 9.4268 12.4668 9.33381L12.4482 9.14551L12.2634 9.18503C9.9572 9.67904 7.94397 11.1541 6.73975 13.2324L6.73394 13.2429C6.69791 13.3115 5.88308 14.8737 6.32595 16.0233C6.38523 14.2983 7.15472 12.6884 8.51121 11.4703H8.51237Z" fill="#8A0304"/>
<path d="M7.7475 17.1019C7.77308 17.1066 7.79516 17.1136 7.82073 17.1182L8.00555 17.1519L8.0195 16.9648C8.06948 16.3185 8.22291 15.6885 8.47515 15.091C8.62626 14.7342 8.8134 14.389 9.03076 14.067C9.24696 13.7473 9.49455 13.4474 9.76655 13.1754C10.0397 12.9023 10.3396 12.6547 10.6581 12.4397C10.9801 12.2223 11.3253 12.0351 11.6821 11.884C11.7612 11.8503 11.8425 11.8178 11.9251 11.7876L11.9855 11.7655L12.0157 11.7085C12.0494 11.6446 12.0797 11.5795 12.1099 11.5144C9.99553 12.0433 7.89745 14.1948 7.74518 17.1031L7.7475 17.1019Z" fill="#8A0304"/>
<path d="M6.96059 16.4542C6.95361 16.5333 6.94547 16.6112 6.93734 16.6879C6.93385 16.7169 6.93153 16.746 6.92804 16.7762C7.14075 16.9192 7.39996 17.0226 7.70102 17.0901C7.77541 15.7673 8.26361 14.491 9.10284 13.4483C9.9165 12.4371 11.0068 11.728 12.139 11.4572C12.2912 11.1166 12.3924 10.7609 12.4458 10.3901C9.71774 10.962 7.20236 13.7017 6.96175 16.4531L6.96059 16.4542Z" fill="#8A0304"/>
<path d="M6.37128 16.1266C6.37476 16.1348 6.37825 16.1417 6.38174 16.1499C6.48403 16.3603 6.62816 16.5381 6.80833 16.6846V16.6753C6.81763 16.5985 6.82576 16.5218 6.83274 16.444C7.07916 13.6252 9.66893 10.8181 12.4656 10.2555C12.4865 10.0602 12.4947 9.86143 12.4888 9.65918C9.83282 9.99859 6.43753 12.3082 6.37128 16.1266V16.1266Z" fill="#8A0304"/>
</svg>
